<svg version="1.2" xmlns="http://www.w3.org/2000/svg" viewBox="0 0 64 64" width="64" height="64">
	<defs>
		<clipPath clipPathUnits="userSpaceOnUse" id="cp1">
			<path d="m0 0h64v64h-64z"/>
		</clipPath>
	</defs>
	<style>
		.s0 { fill: #022444 } 
		.s1 { fill: #8d1813 } 
	</style>
	<g id="Clip-Path" clip-path="url(#cp1)">
		<g>
			<path class="s0" d="m58.67 36.51c-2.12-1.7-4.57-2.93-7.19-3.62-2.63-0.68-5.37-0.81-8.04-0.36-2.44 0.44-4.7 1.56-6.54 3.23-1.83 1.67-3.15 3.82-3.81 6.21-0.74 2.3-1.02 4.72-0.83 7.13 0.2 2.41 0.87 4.75 1.98 6.9 2.67 5.12 9.76 7.84 16.19 7.09 15.09-1.76 15.22-20.1 8.24-26.58zm-8.38 24c-5.33 0.42-11.2-1.79-13.33-6.11-1.78-3.61-2.1-7.76-0.91-11.6 0.49-1.88 1.5-3.59 2.92-4.92 1.41-1.34 3.18-2.25 5.08-2.63 2.3-0.47 4.67-0.46 6.96 0.02 2.29 0.48 4.46 1.43 6.38 2.78 3.94 3.39 7.04 21.42-7.18 22.56z"/>
			<path class="s1" d="m18.91 22.05q-0.29-0.72-0.7-1.38 0.22-0.14 0.3-0.38c0.21-0.45 0-1.06-0.91-1.3h-0.53q-0.75-1.14-1.9-1.87-0.16-0.12-0.35-0.16-0.2-0.03-0.39 0.01-0.2 0.05-0.35 0.17-0.16 0.13-0.25 0.31-0.09 0.18-0.09 0.38-0.01 0.2 0.07 0.38 0.08 0.18 0.23 0.32 0.14 0.13 0.33 0.19l0.27 0.24h-0.93c-1.11 0.17-2.15 0.67-2.97 1.44-0.82 0.76-1.4 1.76-1.65 2.85-0.25 0.84-0.24 1.74 0.04 2.58 0.28 0.83 0.82 1.55 1.54 2.06 0.94 0.55 2.01 0.82 3.1 0.76 1.08-0.05 2.12-0.41 3-1.05 0.93-0.55 1.64-1.4 2.03-2.41 0.38-1 0.42-2.11 0.11-3.14zm-3.82 3.07q-0.61 0.46-1.37 0.54-0.76 0.07-1.45-0.27c-0.67-0.43-0.54-1.34-0.27-2.14 0.27-0.8 0.96-2.02 1.87-2.16 0 0 1.17 0 2.1 0q0.39 0.78 0.64 1.6c0.24 1.1-0.61 1.9-1.52 2.43z"/>
			<path class="s1" d="m30.8 35.97q0.21-0.13 0.29-0.37c0.19-0.45 0-1.07-0.9-1.28q-0.28-0.04-0.56 0-0.74-1.13-1.87-1.87-0.16-0.08-0.34-0.09-0.18-0.02-0.36 0.04-0.17 0.05-0.31 0.17-0.13 0.12-0.22 0.28-0.15 0.34-0.04 0.7 0.12 0.35 0.44 0.53 0.17 0.07 0.27 0.21h-0.91c-1.11 0.17-2.15 0.67-2.98 1.44-0.82 0.76-1.4 1.76-1.66 2.86-0.27 0.83-0.28 1.72-0.02 2.56 0.27 0.83 0.79 1.56 1.49 2.08 0.95 0.56 2.05 0.84 3.16 0.78 1.1-0.06 2.17-0.44 3.05-1.1 0.93-0.56 1.65-1.41 2.04-2.42 0.39-1.01 0.44-2.12 0.12-3.16q-0.3-0.7-0.69-1.36zm-3.15 4.46q-0.58 0.41-1.29 0.49-0.72 0.07-1.37-0.23c-0.7-0.42-0.56-1.33-0.27-2.13 0.29-0.8 0.96-2.03 1.87-2.16 0 0 1.17 0 2.08 0q0.41 0.76 0.64 1.6c0.02 1.09-0.72 2-1.66 2.43z"/>
			<path class="s1" d="m37.33 23.04c-0.27 0.83-0.27 1.72-0.01 2.55 0.27 0.84 0.78 1.57 1.48 2.09 0.94 0.55 2.01 0.81 3.1 0.76 1.08-0.05 2.13-0.42 3.01-1.05 0.94-0.54 1.68-1.38 2.09-2.39 0.41-1 0.47-2.12 0.17-3.16q-0.29-0.72-0.69-1.39 0.21-0.13 0.29-0.37c0.19-0.45 0-1.07-0.9-1.31l-0.54-0.1q-0.76-1.13-1.89-1.87-0.16-0.11-0.35-0.14-0.19-0.03-0.38 0.01-0.19 0.05-0.34 0.17-0.15 0.12-0.24 0.3-0.09 0.17-0.1 0.36-0.01 0.2 0.06 0.38 0.07 0.18 0.2 0.31 0.14 0.14 0.32 0.21 0.05 0.13 0.06 0.27h-0.8c-1.11 0.19-2.13 0.71-2.94 1.49-0.81 0.78-1.36 1.78-1.6 2.88zm6.88-2.11q0.4 0.78 0.67 1.6c0.24 1.04-0.61 1.84-1.55 2.38q-0.6 0.45-1.36 0.53-0.75 0.07-1.44-0.27c-0.66-0.42-0.53-1.33-0.26-2.13 0.26-0.8 0.96-2.03 1.86-2.16 0-0.03 1.07 0.11 1.98 0.05z"/>
			<path class="s1" d="m30.59 19.89q-0.12-0.36-0.46-0.56-1.42-0.5-2.93-0.5c-1.1 0.16-2.13 0.65-2.95 1.4-0.82 0.75-1.4 1.73-1.66 2.81-0.29 0.83-0.31 1.72-0.05 2.56 0.25 0.84 0.76 1.58 1.46 2.11 0.94 0.53 2.01 0.78 3.09 0.72 1.08-0.06 2.12-0.43 2.99-1.07 0.93-0.54 1.65-1.37 2.05-2.36 0.41-1 0.46-2.1 0.16-3.13q-0.34-0.88-1.06-1.5-0.3-0.27-0.64-0.48zm-1.98 5.07q-0.62 0.46-1.39 0.52-0.78 0.06-1.46-0.31c-0.69-0.4-0.56-1.3-0.29-2.1 0.26-0.8 0.96-2.11 1.89-2.24 0 0 0.75 0 1.28 0q0.54 0.32 1.01 0.74 0.39 0.37 0.54 0.88c0.26 1.15-0.62 1.98-1.58 2.51z"/>
			<path class="s1" d="m16.4 35.44q-0.13-0.33-0.4-0.56-1.42-0.51-2.93-0.51c-1.11 0.17-2.13 0.67-2.95 1.42-0.83 0.76-1.4 1.74-1.67 2.82-0.27 0.83-0.28 1.72-0.02 2.55 0.26 0.84 0.77 1.57 1.46 2.09 0.95 0.55 2.02 0.8 3.11 0.74 1.08-0.06 2.13-0.44 3-1.08 0.93-0.56 1.65-1.41 2.03-2.42 0.38-1.01 0.41-2.13 0.08-3.16-0.22-0.59-0.59-1.11-1.07-1.52zm-2 5.1q-0.62 0.46-1.39 0.52-0.78 0.05-1.46-0.31c-0.67-0.43-0.56-1.33-0.27-2.13 0.29-0.8 0.93-2.08 1.87-2.24 0 0 0.77 0 1.28 0q0.54 0.31 1.01 0.72 0.4 0.36 0.53 0.88c0.27 1.17-0.61 2.02-1.57 2.56z"/>
			<path class="s0" d="m54.56 48.48l-5.33-0.51q0-0.76 0-1.76c0-1.73-0.24-3.81-0.43-5.33q-0.01-0.34-0.24-0.59-0.23-0.25-0.56-0.29-0.18 0-0.35 0.07-0.17 0.07-0.29 0.21-0.13 0.13-0.19 0.3-0.06 0.17-0.05 0.35c-0.13 1.55-0.45 3.58-0.64 5.34q-0.07 1.18 0 2.37-0.02 0.64 0.19 1.25 0.1 0.31 0.32 0.55 0.23 0.24 0.53 0.36 0.94 0.29 1.92 0.21c1.57 0 4-0.56 5.33-0.8q0.33 0 0.57-0.23 0.23-0.24 0.23-0.57 0-0.33-0.23-0.56-0.24-0.23-0.57-0.24z"/>
			<path class="s0" d="m56 14.8q-0.15-2.22-0.61-4.4c-0.18-1.2-0.65-2.35-1.36-3.33-0.88-0.86-2-1.41-3.2-1.6q-1.32-0.28-2.67-0.16c-1.41 0-1.57 1.81-0.51 2.02q0.88 0.05 1.74 0.22c0.94 0.1 1.82 0.54 2.45 1.25q0.28 0.69 0.32 1.44c0.21 1.23 0.37 2.88 0.53 4.83 0.14 1.49 0.27 3.17 0.4 4.93 0.27 3.76 0.3 6.24 0.35 10q0.01 0.39 0.27 0.67 0.28 0.27 0.66 0.29 0.39 0.01 0.67-0.24 0.28-0.26 0.32-0.64c0.32-3.81 0.8-6.35 0.8-10.19 0-1.81-0.16-3.52-0.16-5.09z"/>
			<path class="s0" d="m6.37 5.33q-0.87 0.2-1.57 0.75-0.7 0.56-1.09 1.36c-1.76 8.49-2.66 17.14-2.67 25.81q-0.25 6.06 0.4 12.08c0.14 2 0.8 3.93 1.89 5.6 2.45 1.72 5.4 2.56 8.38 2.4 6.05 0.22 14.02-0.61 18.18-0.72q0.16 0 0.31-0.06 0.15-0.06 0.26-0.17 0.11-0.11 0.17-0.26 0.06-0.15 0.06-0.31 0-0.16-0.06-0.3-0.06-0.15-0.17-0.26-0.11-0.11-0.26-0.18-0.15-0.06-0.31-0.06c-4.1 0-12.05 0.35-18-0.16-2.2 0.12-4.39-0.44-6.26-1.62-0.65-1.29-1-2.7-1.02-4.14q-0.58-5.84-0.48-11.7c0-10.67 0.83-23.12 1.63-25.02 0.29-0.72 1.09-0.98 1.95-1.14q1.17-0.28 2.37-0.24c0.99-0.32 1.01-1.66-0.24-1.66-1.14-0.24-2.32-0.24-3.47 0z"/>
			<path class="s1" d="m45.6 3.95q-0.03-0.62-0.31-1.17-0.28-0.55-0.76-0.94c-1.86-1.39-5.94-1.09-6.53 0.19q-0.29 1.13-0.32 2.29l-0.35 1.01c0 0.4-0.18 0.8-0.26 1.18-0.21 1.85-0.07 3.72 0.42 5.52 0.46 0.85 1.22 1.51 2.12 1.85 0.91 0.34 1.91 0.35 2.82 0.01q0.92-0.24 1.63-0.87 0.7-0.64 1.03-1.53c0.38-1.22 0.51-2.51 0.4-3.78 0.14-0.22 0.19-3.34 0.11-3.76zm-2.67 0.58c0 0.88-0.32 1.95-0.37 3.12q-0.04 1.18-0.32 2.32c0 0.38-0.21 0.78-0.61 0.86-1.02 0.26-1.5 0-1.74-0.78q-0.57-1.87-0.48-3.84l0.16-1.73c-0.13-2.67 3.2-1.07 3.23-1.04 0.03 0.03 0.32 0.67 0.27 1.09z"/>
			<path class="s1" d="m20.53 4.13c-0.07-0.81-0.46-1.57-1.09-2.1-1.76-1.39-5.87-1.07-6.53 0.21-0.75 2-1.06 4.14-0.91 6.27q-0.05 1.88 0.53 3.68c0.46 0.84 1.21 1.49 2.11 1.83 0.91 0.34 1.9 0.34 2.8 0.01q0.92-0.22 1.64-0.85 0.7-0.63 1.03-1.53 0.56-1.78 0.45-3.65c-0.03-0.37 0.03-3.49-0.03-3.87zm-2.66 0.62c0 0.88-0.32 1.94-0.38 3.12q-0.01 1.18-0.32 2.32c0 0.34-0.21 0.74-0.61 0.85q-0.25 0.11-0.52 0.11-0.27 0-0.52-0.11-0.25-0.11-0.43-0.31-0.18-0.21-0.26-0.46-0.52-1.9-0.38-3.87l0.16-1.71c0-3.46 3.2-1.06 3.23-1.04 0.03 0.03 0.19 0.67 0.13 1.1z"/>
			<path class="s0" d="m35.23 5.17c-1.55-0.13-2.38-0.24-3.9-0.32-1.52-0.08-3.06-0.13-4.48 0q-1.9 0.12-3.78 0.48-0.34 0.09-0.57 0.36-0.21 0.28-0.21 0.63 0 0.35 0.21 0.63 0.23 0.27 0.57 0.36c1.04 0 1.62 0.29 2.9 0.37 1.28 0.08 1.84 0 2.67 0h2.8l4.03-0.21c1.04-0.3 0.77-2.14-0.24-2.3z"/>
		</g>
	</g>
</svg>