<svg version="1.2" xmlns="http://www.w3.org/2000/svg" viewBox="0 0 36 28" width="36" height="28">
	<defs>
		<clipPath clipPathUnits="userSpaceOnUse" id="cp1">
			<path d="m18.03 0.95h18v27h-18zm12.66 3.95c-0.93-0.9-2.09-1.52-3.35-1.79-1.26-0.28-2.58-0.19-3.79 0.24-1.25 0.52-2.28 1.47-2.89 2.68-0.62 1.2-0.79 2.59-0.47 3.91 0.23 1.29 0.91 2.46 1.91 3.31 1 0.85 2.27 1.33 3.58 1.35q1.28 0.05 2.52-0.22 0.87-0.19 1.65-0.63c0.62-0.34 1.14-0.85 1.48-1.47q0.08-0.19 0.07-0.39-0.02-0.2-0.12-0.38-0.1-0.18-0.27-0.29-0.17-0.12-0.37-0.15c-1.01-0.4-0.37 1.09-1.33 1.63q-0.8 0.39-1.68 0.49-0.92 0.08-1.84 0c-0.96-0.07-1.86-0.47-2.56-1.12-0.7-0.66-1.15-1.53-1.28-2.48-0.18-0.9-0.04-1.84 0.41-2.64 0.44-0.8 1.16-1.42 2.01-1.75 0.87-0.27 1.8-0.3 2.69-0.07 0.88 0.22 1.69 0.68 2.33 1.33q1.13 0.88 1.83 2.14 0.69 1.26 0.83 2.7c-0.01 2.9-0.88 5.73-2.52 8.13-1.56 2.46-3.68 4.52-6.2 6q-0.11 0.06-0.18 0.15-0.08 0.1-0.12 0.22-0.03 0.11-0.02 0.24 0.01 0.12 0.07 0.23 0.06 0.11 0.15 0.19 0.09 0.08 0.21 0.11 0.12 0.04 0.24 0.02 0.12-0.01 0.23-0.07c2.8-1.48 5.2-3.62 7.01-6.22 1.88-2.63 2.96-5.76 3.08-8.99-0.08-1.24-0.41-2.45-0.98-3.55-0.57-1.11-1.36-2.08-2.33-2.86z"/>
		</clipPath>
		<clipPath clipPathUnits="userSpaceOnUse" id="cp2">
			<path d="m0-0.47h18v27h-18zm13.37 3.41c-1.03-0.65-2.17-1.08-3.37-1.28-1.2-0.2-2.43-0.16-3.61 0.12-0.95 0.17-1.82 0.6-2.53 1.25-0.71 0.65-1.22 1.49-1.47 2.41-0.41 1.25-0.5 2.59-0.27 3.88 0.24 1.3 0.79 2.52 1.6 3.55 0.58 0.62 1.3 1.08 2.11 1.33q1.67 0.48 3.41 0.42c0.8 0.01 1.59-0.17 2.31-0.52q1.05-0.58 1.76-1.54 0.09-0.08 0.13-0.19 0.05-0.11 0.05-0.23-0.01-0.12-0.06-0.22-0.05-0.11-0.15-0.19-0.09-0.07-0.2-0.1-0.12-0.03-0.24-0.01-0.12 0.02-0.21 0.09-0.1 0.07-0.16 0.17-0.6 0.73-1.44 1.15-0.85 0.36-1.76 0.28-1.51-0.02-2.94-0.49-0.83-0.33-1.41-1.02-0.74-1.04-1-2.29-0.25-1.26 0.03-2.51c0.06-0.75 0.36-1.46 0.85-2.04 0.5-0.57 1.16-0.97 1.89-1.14 1.87-0.44 3.83-0.15 5.48 0.81q1.11 0.91 1.76 2.18 0.63 1.28 0.7 2.71c0.26 2.46-0.07 4.94-0.96 7.24-0.88 2.38-2.07 4.62-3.56 6.67q-0.15 0.2-0.12 0.46 0.04 0.25 0.24 0.41 0.2 0.15 0.46 0.12 0.25-0.04 0.4-0.24c2-2.53 3.56-5.39 4.59-8.44 0.72-2.1 1-4.33 0.83-6.54-0.06-1.2-0.37-2.38-0.91-3.46-0.53-1.08-1.29-2.04-2.23-2.8z"/>
		</clipPath>
	</defs>
	<style>
		.s0 { fill: #8d1813 } 
	</style>
	<path fill-rule="evenodd" class="s0" d="m30.69 4.9c-0.93-0.9-2.09-1.52-3.35-1.79-1.26-0.28-2.58-0.19-3.79 0.24-1.25 0.52-2.28 1.47-2.89 2.68-0.62 1.2-0.79 2.59-0.47 3.91 0.23 1.29 0.91 2.46 1.91 3.31 1 0.85 2.27 1.33 3.58 1.35q1.28 0.05 2.52-0.22 0.87-0.19 1.65-0.63c0.62-0.34 1.14-0.85 1.48-1.47q0.08-0.19 0.07-0.39-0.02-0.2-0.12-0.38-0.1-0.18-0.27-0.29-0.17-0.12-0.37-0.15c-1.01-0.4-0.37 1.09-1.33 1.63q-0.8 0.39-1.68 0.49-0.92 0.08-1.84 0c-0.96-0.07-1.86-0.47-2.56-1.12-0.7-0.66-1.15-1.53-1.28-2.48-0.18-0.9-0.04-1.84 0.41-2.64 0.44-0.8 1.16-1.42 2.01-1.75 0.87-0.27 1.8-0.3 2.69-0.07 0.88 0.22 1.69 0.68 2.33 1.33q1.13 0.88 1.83 2.14 0.69 1.26 0.83 2.7c-0.01 2.9-0.88 5.73-2.52 8.13-1.56 2.46-3.68 4.52-6.2 6q-0.11 0.06-0.18 0.15-0.08 0.1-0.12 0.22-0.03 0.11-0.02 0.24 0.01 0.12 0.07 0.23 0.06 0.11 0.15 0.19 0.09 0.08 0.21 0.11 0.12 0.04 0.24 0.02 0.12-0.01 0.23-0.07c2.8-1.48 5.2-3.62 7.01-6.22 1.88-2.63 2.96-5.76 3.08-8.99-0.08-1.24-0.41-2.45-0.98-3.55-0.57-1.11-1.36-2.08-2.33-2.86z"/>
	<filter id="f0">
		<feFlood flood-color="#8d1813" flood-opacity="1" />
		<feBlend mode="normal" in2="SourceGraphic"/>
		<feComposite in2="SourceAlpha" operator="in" />
	</filter>
	<g id="Clip-Path" clip-path="url(#cp1)" filter="url(#f0)">
		<path class="s0" d="m23.55 3.35l-0.45-1.26-0.03 0.01-0.03 0.02zm-4.08 2.07c-0.76 1.49-0.97 3.2-0.58 4.82l2.59-0.61c-0.24-1.01-0.11-2.08 0.36-3zm6.17 10.52q1.44 0.05 2.85-0.26l-0.57-2.61q-1.08 0.24-2.19 0.2zm3.09-4.43q-0.59 0.29-1.24 0.36l0.3 2.65q1.11-0.13 2.12-0.62zm2.41-1.67c-0.42-0.17-1.24-0.36-1.91 0.28-0.26 0.24-0.38 0.52-0.44 0.69-0.07 0.17-0.11 0.34-0.13 0.44-0.12 0.57-0.13 0.37 0.01 0.29l1.29 2.33c0.56-0.31 0.87-0.76 1.05-1.17 0.15-0.36 0.23-0.74 0.25-0.87q0.03-0.13 0.02-0.09c0 0.02-0.06 0.16-0.22 0.32-0.19 0.18-0.44 0.27-0.66 0.28-0.18 0.01-0.27-0.04-0.24-0.02zm-0.41 1.46c-0.01 2.64-0.81 5.21-2.29 7.39l2.21 1.5c1.78-2.62 2.73-5.71 2.75-8.88zm-0.08-0.22l-0.49 1.24 0.14 0.05 0.14 0.03zm-2.16 4.61q1.07-0.24 2.03-0.77l-1.31-2.33q-0.6 0.34-1.28 0.49zm-0.85-2.49l0.11 1.33 0.02-0.01h0.02zm-1.84 0l0.11-1.33h-0.01zm-2.53-3.86c-0.12-0.59-0.03-1.2 0.26-1.73l-2.33-1.29c-0.6 1.08-0.79 2.33-0.55 3.54zm1.12-4.12l-0.4-1.27-0.04 0.01-0.03 0.01zm5.01 1.26l-0.95 0.93 0.06 0.06 0.07 0.06zm5.94 4.77c-0.09-1.43-0.47-2.82-1.12-4.09l-2.37 1.23c0.48 0.94 0.76 1.97 0.83 3.02zm-5.8 8.21l-1.1-0.75-0.01 0.01-0.01 0.02zm-6.82 4.82q-0.35 0.18-0.6 0.49l2.05 1.7q-0.09 0.11-0.22 0.17zm5.69-5.53c-1.44 2.29-3.41 4.2-5.75 5.57l1.36 2.3c2.69-1.59 4.97-3.8 6.65-6.44zm-6.04 8.76q0.3 0.25 0.68 0.37l0.78-2.55q0.14 0.04 0.26 0.14zm8.55-7.18l-1.09-0.78v0.01l-0.01 0.01zm3.08-8.99l1.33 0.05 0.01-0.06-0.01-0.07zm-3.3-6.41l-0.93 0.96 0.04 0.04 0.05 0.03zm0.92-0.96c-1.11-1.07-2.49-1.8-4-2.13l-0.56 2.61c1.02 0.22 1.96 0.72 2.71 1.44zm-4-2.13c-1.5-0.33-3.07-0.23-4.52 0.29l0.89 2.51c0.99-0.35 2.05-0.42 3.07-0.19zm-4.59 0.31c-1.54 0.64-2.81 1.81-3.56 3.3l2.37 1.21c0.47-0.92 1.26-1.65 2.22-2.05zm-2.85 7.82l1.31-0.24-0.01-0.03v-0.04zm-1.32 0.24c0.3 1.6 1.13 3.04 2.37 4.09l1.72-2.03c-0.76-0.65-1.28-1.55-1.46-2.54zm2.36 4.09c1.24 1.05 2.8 1.64 4.42 1.67l0.05-2.66c-1.01-0.02-1.98-0.39-2.74-1.04zm4.44 0.34l0.05-1.34h-0.01-0.02zm4.82 0.32c0.84-0.46 1.53-1.15 2-1.98l-2.32-1.31q-0.35 0.61-0.97 0.95zm-1.19-2.22l0.59 1.2 0.03-0.02 0.03-0.01zm2.7 8.37c2.03-2.84 3.19-6.21 3.33-9.71l-2.67-0.1c-0.11 2.97-1.1 5.84-2.83 8.26zm0.72-9.28q-0.04-0.5-0.29-0.94l-2.31 1.32q-0.05-0.09-0.06-0.19zm-0.29-0.95q-0.25-0.44-0.67-0.73l-1.51 2.2q-0.08-0.06-0.13-0.14zm-0.67-0.73q-0.42-0.29-0.93-0.37l-0.4 2.63q-0.1-0.01-0.19-0.07zm-1.91 3.63l-0.64-1.16h-0.01zm-1.66 0.63l-0.28-1.3zm-0.69-2.52q-0.8 0.07-1.61 0l-0.23 2.66q1.04 0.09 2.07 0zm-1.63 0c-0.65-0.05-1.26-0.32-1.74-0.77l-1.82 1.95c0.92 0.86 2.11 1.38 3.37 1.48zm-1.74-0.77c-0.48-0.44-0.79-1.04-0.88-1.69l-2.64 0.37c0.17 1.25 0.77 2.4 1.69 3.27zm-2.19-1.51l1.32-0.18-0.01-0.04-0.01-0.04zm1.58-1.99c0.29-0.53 0.76-0.94 1.32-1.15l-0.94-2.49c-1.16 0.44-2.12 1.27-2.71 2.35zm1.24-1.12c0.64-0.2 1.32-0.22 1.97-0.06l0.64-2.59c-1.12-0.28-2.3-0.24-3.4 0.1zm1.96-0.06c0.65 0.17 1.24 0.5 1.7 0.98l1.9-1.87c-0.81-0.83-1.83-1.41-2.95-1.69zm1.83 1.08q0.92 0.72 1.48 1.74l2.34-1.28c-0.55-0.99-1.29-1.86-2.18-2.56zm1.48 1.74q0.56 1.03 0.68 2.18l2.66-0.26c-0.12-1.12-0.45-2.21-1-3.2zm1.29 3.03l1.16 0.66 0.04-0.08 0.03-0.08zm-9.21 12.44q-0.25 0.31-0.37 0.68l2.56 0.77q-0.05 0.14-0.14 0.26zm1.7 3.18q0.39-0.04 0.74-0.23l-1.3-2.33q0.13-0.07 0.28-0.09zm-2.13-1.74q0.04 0.39 0.23 0.73l2.33-1.28q0.07 0.12 0.09 0.27zm0.07-0.77q-0.11 0.38-0.07 0.77l2.65-0.28q0.02 0.14-0.03 0.28zm0.14 1.46q0.18 0.35 0.48 0.61l1.72-2.04q0.11 0.09 0.18 0.23zm1.19-0.61l1.19-0.6-0.01-0.02-0.01-0.02zm0.82 0.25l-0.62-1.17h-0.01l-0.01 0.01zm-0.86 1.32q0.38 0.12 0.77 0.08l-0.28-2.66q0.15-0.01 0.29 0.03zm1.48-0.14c2.99-1.59 5.56-3.87 7.49-6.65l-2.2-1.52c-1.68 2.43-3.92 4.43-6.54 5.81zm-1.19-2.27l0.61 1.18 0.03-0.01 0.03-0.02zm9.24-12.65q0.19-0.48 0.15-0.98l-2.66 0.18q0-0.1 0.03-0.19zm-0.52-1.48h1.34v-0.07l-0.01-0.06zm2.15-4.16c-0.65-1.26-1.56-2.38-2.67-3.28l-1.68 2.07c0.82 0.67 1.5 1.5 1.98 2.44z"/>
	</g>
	<path fill-rule="evenodd" class="s0" d="m13.37 2.94c-1.03-0.65-2.17-1.08-3.37-1.28-1.2-0.2-2.43-0.16-3.61 0.12-0.95 0.17-1.82 0.6-2.53 1.25-0.71 0.65-1.22 1.49-1.47 2.41-0.41 1.25-0.5 2.59-0.27 3.88 0.24 1.3 0.79 2.52 1.6 3.55 0.58 0.62 1.3 1.08 2.11 1.33q1.67 0.48 3.41 0.42c0.8 0.01 1.59-0.17 2.31-0.52q1.05-0.58 1.76-1.54 0.09-0.08 0.13-0.19 0.05-0.11 0.05-0.23-0.01-0.12-0.06-0.22-0.05-0.11-0.15-0.19-0.09-0.07-0.2-0.1-0.12-0.03-0.24-0.01-0.12 0.02-0.21 0.09-0.1 0.07-0.16 0.17-0.6 0.73-1.44 1.15-0.85 0.36-1.76 0.28-1.51-0.02-2.94-0.49-0.83-0.33-1.41-1.02-0.74-1.04-1-2.29-0.25-1.26 0.03-2.51c0.06-0.75 0.36-1.46 0.85-2.04 0.5-0.57 1.16-0.97 1.89-1.14 1.87-0.44 3.83-0.15 5.48 0.81q1.11 0.91 1.76 2.18 0.63 1.28 0.7 2.71c0.26 2.46-0.07 4.94-0.96 7.24-0.88 2.38-2.07 4.62-3.56 6.67q-0.15 0.2-0.12 0.46 0.04 0.25 0.24 0.41 0.2 0.15 0.46 0.12 0.25-0.04 0.4-0.24c2-2.53 3.56-5.39 4.59-8.44 0.72-2.1 1-4.33 0.83-6.54-0.06-1.2-0.37-2.38-0.91-3.46-0.53-1.08-1.29-2.04-2.23-2.8z"/>
	<filter id="f1">
		<feFlood flood-color="#8d1813" flood-opacity="1" />
		<feBlend mode="normal" in2="SourceGraphic"/>
		<feComposite in2="SourceAlpha" operator="in" />
	</filter>
	<g id="Clip-Path" clip-path="url(#cp2)" filter="url(#f1)">
		<path class="s0" d="m6.39 1.78l0.24 1.31 0.03-0.01 0.03-0.01zm-4 3.67l1.27 0.41 0.01-0.03 0.01-0.03zm1.33 7.43l-1.04 0.83 0.03 0.04 0.03 0.04zm2.11 1.33l-0.4 1.27 0.02 0.01h0.01zm-0.36 1.28q1.88 0.54 3.83 0.47l-0.1-2.67q-1.53 0.06-3-0.36zm6.09-1.39l0.59 1.19 0.02-0.01 0.02-0.01zm2.66-0.54q0.3-0.28 0.46-0.66l-2.45-1.04q0.07-0.16 0.2-0.28zm-2.03 1.72c0.87-0.46 1.62-1.12 2.2-1.91l-2.15-1.58q-0.53 0.72-1.32 1.15zm-2.96 0.68c1.01 0.02 2.02-0.21 2.92-0.66l-1.19-2.39q-0.79 0.4-1.68 0.38zm1.29-4.14q-0.54 0.22-1.12 0.17l-0.23 2.66c0.81 0.07 1.64-0.06 2.39-0.38zm-4.17 1.01l-0.47 1.25 0.02 0.01 0.03 0.01zm-1.42-1.01l-1.08 0.77 0.02 0.04 0.03 0.03zm-0.97-4.8l1.3 0.29 0.02-0.09 0.01-0.09zm3.05-1.89c1.53-0.36 3.15-0.12 4.51 0.67l1.33-2.3c-1.95-1.14-4.26-1.48-6.45-0.96zm5.17-0.49l0.85-1.03-0.09-0.07-0.09-0.05zm1.13 5.04c0.24 2.24-0.06 4.51-0.88 6.61l2.49 0.97c0.97-2.5 1.33-5.2 1.04-7.87zm-1.16 15.34c2.1-2.65 3.72-5.64 4.8-8.84l-2.52-0.86c-0.99 2.91-2.47 5.63-4.37 8.05zm-3.1-2.38c-0.31 0.41-0.45 0.93-0.37 1.44l2.64-0.36q0.03 0.29-0.14 0.53zm3.37-6.33c-0.83 2.26-1.97 4.4-3.39 6.35l2.16 1.56c1.56-2.14 2.82-4.49 3.73-6.99zm3.27-0.56l-1.26-0.44v0.01zm1.26 0.43c0.78-2.27 1.08-4.67 0.89-7.07l-2.66 0.21c0.17 2.03-0.09 4.07-0.76 6zm-2.85-14.37c-1.18-0.74-2.5-1.23-3.87-1.46l-0.44 2.63q1.55 0.26 2.89 1.09zm-3.87-1.46c-1.37-0.23-2.77-0.18-4.13 0.13l0.61 2.6q1.53-0.36 3.09-0.1zm-4.07 0.12c-1.19 0.22-2.3 0.77-3.19 1.59l1.8 1.96c0.52-0.48 1.17-0.8 1.87-0.93zm-3.19 1.59c-0.9 0.82-1.54 1.87-1.86 3.04l2.57 0.7c0.19-0.68 0.57-1.3 1.09-1.77zm-1.84 2.98c-0.47 1.46-0.58 3.01-0.31 4.52l2.63-0.47c-0.2-1.08-0.12-2.19 0.22-3.23zm-0.31 4.53c0.27 1.51 0.91 2.93 1.86 4.13l2.09-1.65c-0.68-0.86-1.13-1.87-1.33-2.95zm1.94 4.21c0.73 0.79 1.65 1.38 2.68 1.7l0.8-2.54q-0.89-0.29-1.53-0.97zm6.54-1.8q-1.3-0.01-2.52-0.42l-0.85 2.52q1.63 0.55 3.34 0.57zm1.75 1.05l0.52 1.23 0.03-0.02 0.04-0.01zm3.64-0.14q0.16-0.38 0.15-0.79l-2.67 0.08q0-0.17 0.07-0.33zm-2.07-2.59q-0.41 0.08-0.74 0.31l1.53 2.19q-0.14 0.09-0.31 0.13zm2.02 1.01q-0.18-0.37-0.5-0.63l-1.68 2.08q-0.13-0.11-0.21-0.27zm0.2 0.78q-0.02-0.41-0.2-0.78l-2.39 1.19q-0.07-0.16-0.08-0.33zm-0.7-1.41q-0.32-0.25-0.71-0.36l-0.66 2.59q-0.17-0.05-0.3-0.15zm-2.27-0.08q-0.33 0.24-0.54 0.59l2.3 1.34q-0.08 0.15-0.23 0.25zm1.55-0.28q-0.4-0.1-0.8-0.03l0.48 2.63q-0.17 0.03-0.34-0.02zm-1.97 0.71q-0.41 0.5-1 0.79l1.18 2.39q1.11-0.55 1.89-1.5zm1.03 0.85l1.03 0.84 0.07-0.08 0.05-0.09zm0.84 0.68l-0.9-0.99-0.1 0.09-0.07 0.11zm-4.04 0.75l0.11-1.33-0.05-0.01h-0.05zm-0.03 1.31l0.03-1.33-0.04-0.01-0.04 0.01zm-2.43-3.05q-0.51-0.2-0.86-0.61l-2.06 1.69c0.53 0.63 1.2 1.12 1.97 1.41zm-0.8-0.54q-0.57-0.81-0.77-1.79l-2.62 0.53c0.21 1.02 0.62 1.97 1.22 2.81zm-0.78-1.79q-0.19-0.97 0.02-1.95l-2.6-0.58c-0.22 1.01-0.23 2.05-0.03 3.06zm0.05-2.13c0.04-0.47 0.22-0.92 0.53-1.28l-2.02-1.74c-0.67 0.79-1.09 1.77-1.17 2.81zm0.54-1.28c0.3-0.36 0.72-0.61 1.18-0.72l-0.61-2.6c-1.01 0.24-1.92 0.79-2.59 1.58zm0.88-2.02l0.3 1.3zm4.64 1.84q0.89 0.73 1.4 1.75l2.39-1.19c-0.51-1.02-1.23-1.91-2.11-2.62zm1.41 1.74q0.51 1.03 0.56 2.17l2.66-0.11c-0.05-1.13-0.33-2.24-0.84-3.25zm1.89 2.11l-1.33 0.05v0.05l0.01 0.04zm-5.96 14.55c0.07 0.51 0.34 0.98 0.75 1.29l1.61-2.13q0.23 0.18 0.28 0.47zm2.2 1.67c0.51-0.07 0.98-0.34 1.29-0.76l-2.13-1.61q0.18-0.23 0.47-0.27zm0.23-1.56l-1.05-0.83v0.01l-0.01 0.01zm-1.67 1.19c0.41 0.31 0.93 0.44 1.44 0.37l-0.36-2.64q0.29-0.03 0.52 0.14zm0.69-1.93l1.06 0.8 0.01-0.01 0.01-0.01zm3.56-6.66l-1.24-0.49-0.01 0.02v0.01zm2.84-7.56l-1.34 0.06 0.01 0.02v0.02zm1.33-0.06c-0.06-1.39-0.42-2.75-1.04-4l-2.39 1.19c0.46 0.92 0.72 1.92 0.77 2.94zm-1.05-4c-0.62-1.25-1.5-2.35-2.57-3.24l-1.7 2.06c0.79 0.65 1.43 1.45 1.89 2.37z"/>
	</g>
</svg>