<svg version="1.2" xmlns="http://www.w3.org/2000/svg" viewBox="0 0 48 48" width="48" height="48">
	<defs>
		<clipPath clipPathUnits="userSpaceOnUse" id="cp1">
			<path d="m0 0h48v48h-48z"/>
		</clipPath>
	</defs>
	<style>
		.s0 { fill: #022444 } 
		.s1 { fill: #8d1813 } 
	</style>
	<g id="Clip-Path" clip-path="url(#cp1)">
		<g>
			<path class="s0" d="m47.24 6.12c1.02-4.4-7.42-7.04-11.68-5.82-3.32 1.04-4.32 3.52-3.4 5.6-0.32 1.11-0.28 2.29 0.1 3.38 0.38 1.1 1.08 2.04 2.02 2.72 1.67 1.06 3.62 1.61 5.6 1.59 1.98-0.03 3.91-0.63 5.56-1.73q-0.21 0.75-0.69 1.37-0.48 0.61-1.17 0.99-1.22 0.95-2.7 1.38-0.25 0.04-0.4 0.23-0.15 0.2-0.12 0.45 0.04 0.25 0.23 0.4 0.2 0.15 0.45 0.12c1.68 0.13 3.35-0.34 4.7-1.34 0.7-0.64 1.19-1.47 1.4-2.39 0.21-0.93 0.14-1.89-0.22-2.77q0.56-0.95 0.65-2.05 0.08-1.1-0.33-2.13zm-11-3.74c2.11-0.57 4.34-0.52 6.42 0.14 4.68 1.38 4 4.18 0.44 4.98-6.3 1.44-12.22-3.24-6.86-5.12zm4 8.92c-1.65 0.06-3.3-0.27-4.8-0.98q-0.78-0.37-1.27-1.07-0.49-0.71-0.57-1.57c1.82 1.24 3.95 1.94 6.15 1.99 2.2 0.06 4.37-0.52 6.25-1.67-0.34 2.5-3.22 3.24-5.84 3.3z"/>
			<path class="s0" d="m13.46 11.66c1.74 4.52 10 5.12 13.64 1.72 0.72-0.67 1.23-1.54 1.44-2.5 0.22-0.96 0.13-1.97-0.24-2.88 1.02-4.4-7.42-7.04-11.7-5.82-3.3 1.04-4.3 3.52-3.38 5.6-0.26 1.29-0.18 2.63 0.24 3.88zm12.42 0.34c-2.5 2-9.88 1.74-11.1-1.5q-0.13-0.43-0.2-0.88c1.83 1.26 4 1.96 6.22 2 2.23 0.05 4.42-0.56 6.3-1.74q-0.07 0.63-0.39 1.19-0.32 0.55-0.83 0.93zm-2.16-7.54c4.7 1.38 4 4.18 0.44 5-2.46 0.55-5.04 0.21-7.28-0.94-4.48-2.7 0.64-5.88 6.84-4.06z"/>
			<path class="s0" d="m3.42 24.4c0.16 0 5.6-1.74 5.76-1.8q-0.11 0.09-0.17 0.22-0.06 0.14-0.06 0.28 0 0.14 0.06 0.27 0.06 0.14 0.17 0.23c0.52 0.56-0.66 2-0.98 2.38q-0.9 1.47-2.2 2.62c-0.64 0.42-0.66-0.24-0.88-0.36-0.22-0.12-0.84-1.28-1.18-1.4-0.34-0.12-1.04 0.4-0.6 1.06 0.44 0.66 0.88 1.18 1.4 1.86 3.52 6.7 3.82 7.58 4.8 8.52q0.39 0.41 0.91 0.6 0.53 0.2 1.09 0.14c3.06-0.18 27.74-8.3 31.5-10q0.41-0.16 0.72-0.47 0.31-0.32 0.46-0.73c0.3-1.86-9.54-12.28-12.6-12.66-2-0.24-23 5.84-28.24 8q-0.17 0.1-0.26 0.27-0.1 0.17-0.09 0.36 0 0.2 0.11 0.36 0.11 0.16 0.28 0.25zm32.8 4.7c0.95-1.58 2.15-3.01 3.54-4.22q1 1.01 1.68 2.26c-1.44 0.6-3.74 1.42-5.22 1.96zm-16.22-9.42c0.18 0 10.46-2.64 11.34-2.52 1.52 0.22 6 5.14 7.12 6.3-3.06 1.42-4.32 4.74-3.76 6.16-1.78 0.64-15.64 5.48-18.8 6.54-0.94-4.44-8.24-4.34-7.44-2.54q0.06 0.19 0.22 0.3c0 0 1.26 0.12 1.74 0.34 1.51 0.46 2.88 1.27 4 2.38q-1.66 0.62-3.42 0.76c-0.8-0.2-1.44-1.58-4.76-7.44 4.14-0.8 6-6 3.76-7.42-0.18-0.22-1.88 0.22 10-2.86z"/>
			<path class="s0" d="m18.86 26.66c0.86 1.26 2.5 1 4 0.78 2.42-0.38 2.56 0.68 0.48 1.38q-0.97 0.34-2 0.32-0.28-0.02-0.5 0.15-0.22 0.18-0.25 0.46-0.03 0.28 0.15 0.5 0.18 0.22 0.46 0.25c0.93 0.15 1.89 0.09 2.8-0.16 0 0.66 1.62 1.82 2.18 1.48 0.56-0.34 0-2.12 0-2.28 0-0.16 0 0 0-0.14 1.84-1.52 0.54-3.82-1.44-4.26q-2.01-0.06-4 0.22c-0.54-0.62-1.74-1.62 2.62-1.28q0.25 0.03 0.45-0.11 0.2-0.15 0.24-0.4 0.03-0.25-0.11-0.45-0.15-0.2-0.4-0.24-1.15-0.27-2.34-0.32c-0.42-1.1-2-1.84-2.5-1.56-0.5 0.28 0 1.8 0.28 2.24q-0.53 0.53-0.72 1.26c-0.26 0.7 0.22 1.5 0.6 2.16z"/>
			<path class="s0" d="m26.44 20.14c1.03 1.03 2.3 1.78 3.71 2.17 1.4 0.4 2.87 0.43 4.29 0.09q0.28 0 0.48-0.2 0.2-0.2 0.2-0.48 0-0.28-0.2-0.48-0.2-0.2-0.48-0.2c-2.56-0.47-5.04-1.27-7.38-2.4-0.66-0.4-2.02 0.66-0.62 1.5z"/>
			<path class="s1" d="m6.36 39.34q1.32 1.97 3.16 3.46c4 2.22 30-8.2 34.3-9.86q0.23-0.13 0.32-0.37 0.09-0.24 0-0.49-0.09-0.24-0.32-0.37-0.22-0.12-0.48-0.07c-2 0.74-30.96 10.34-32.9 9.38q-1.51-1.2-2.68-2.72c-2.12-2.68-4.26-7.8-5.28-7.68q-0.14 0-0.26 0.07-0.12 0.06-0.2 0.17-0.09 0.11-0.11 0.25-0.03 0.14 0.01 0.27 2.02 4.09 4.44 7.96z"/>
			<path class="s1" d="m44 36.14c-2.22 0.8-32.46 10.74-34.7 9.76q-1.58-1.18-2.82-2.7c-2.12-2.52-3.9-6.2-4.92-7.34-0.46-0.52-1.3-0.24-1.14 0.5 0 0.36 0.9 1.24 1.4 2.22 0.26 0.46 0.46 0.96 0.68 1.44 1.18 2.38 2.72 4.56 4.56 6.48 0.37 0.54 0.88 0.97 1.49 1.23 0.6 0.27 1.26 0.35 1.91 0.25 8-0.46 26.62-7.68 34-10.54q0.22-0.13 0.31-0.36 0.09-0.24 0.01-0.48-0.09-0.24-0.31-0.37-0.22-0.13-0.47-0.09z"/>
		</g>
	</g>
</svg>