<svg version="1.2" xmlns="http://www.w3.org/2000/svg" viewBox="0 0 64 64" width="64" height="64">
	<defs>
		<clipPath clipPathUnits="userSpaceOnUse" id="cp1">
			<path d="m0 0h64v64h-64z"/>
		</clipPath>
	</defs>
	<style>
		.s0 { fill: #022444 } 
		.s1 { fill: #8d1813 } 
	</style>
	<g id="Clip-Path" clip-path="url(#cp1)">
		<g>
			<path fill-rule="evenodd" class="s0" d="m64.05 34.44c0 1.39-0.33 2.77-0.96 4.01 0.55 1.43 0.73 2.98 0.52 4.49-0.21 1.52-0.8 2.96-1.72 4.18-2.48 2.8-4.02 4.19-10.93 3.28q-0.18 0.03-0.35-0.01-0.17-0.05-0.31-0.16-0.13-0.12-0.21-0.28-0.08-0.16-0.08-0.34 0-0.17 0.08-0.34 0.08-0.16 0.21-0.27 0.14-0.12 0.31-0.16 0.17-0.05 0.35-0.01c5.68-0.38 6.85-1.66 8.56-3.68 1.1-1.19 1.75-2.73 1.81-4.35-4.24 3.92-13.14 4.53-18.77 1.01-3.49-2.21-3.97-5.54-3.49-9.65q-0.03-0.15 0-0.29c-1.84-3.95 0.26-8.03 4.45-10.14 4.07-1.51 8.54-1.59 12.67-0.24 6 1.92 7.6 5.9 6.9 8.94 0.63 1.24 0.96 2.62 0.96 4.01zm-21.65-8.35c-0.63 0.82-1.02 1.81-1.12 2.84 0 5.18 9.28 7.71 16 4.7 5.33-2.4 5.95-8.22-1.76-10.14-3.54-0.93-7.3-0.66-10.67 0.78-0.97 0.36-1.82 0.99-2.45 1.82zm19.49 6.79c-4.05 5.2-16 6.75-21.33 1.12-0.07 1.13 0.2 2.26 0.75 3.25 0.56 0.99 1.39 1.79 2.4 2.32 5.41 2.7 19.25 2.56 18.18-6.69z"/>
			<path fill-rule="evenodd" class="s0" d="m46.66 56.98c-0.39 1.48-1.24 2.81-2.42 3.79-5.79 5.02-19.12 3.79-21.79-3.25-0.71-2.23-0.71-4.62 0-6.85-1.12-3.12 0.4-6.86 5.63-8.32 7.23-1.9 21.25 3.17 18.32 10.13 0.55 1.43 0.64 3.01 0.26 4.5zm-21.54-8.63c-0.48 3.84 7.6 7.41 14.91 5.94 6.1-1.2 7.22-5.92-0.46-8.58-3.43-1.19-7.12-1.39-10.66-0.59-2.24 0.67-3.58 1.81-3.79 3.23zm19.84 6.05c-4.51 3.89-16.48 3.73-21.17-1.6-0.15 1.21 0.06 2.44 0.61 3.53 0.55 1.08 1.42 1.98 2.48 2.58 5.12 3.17 18.45 2.82 18.08-4.51z"/>
			<path fill-rule="evenodd" class="s1" d="m26.51 32.27c0.27-1.7 0.01-3.44-0.74-4.99-0.75-1.55-1.95-2.84-3.45-3.68-4.4-2.07-9.32-2.81-14.13-2.11-1.74 0.2-3.34 1.05-4.47 2.39-1.12 1.34-1.69 3.07-1.59 4.81q0.01 0.33 0.24 0.57 0.23 0.23 0.56 0.23 0.33 0 0.57-0.23 0.23-0.24 0.23-0.57c0-1.3 0.51-2.56 1.41-3.51 0.91-0.94 2.14-1.5 3.45-1.55 4.21-0.36 8.43 0.51 12.16 2.5 0.94 0.58 1.7 1.42 2.17 2.42 0.48 1 0.65 2.11 0.49 3.21-0.88 5.33-16.16 6.67-19.38-0.64q-0.15-0.34-0.49-0.49-0.35-0.14-0.7 0-0.34 0.14-0.49 0.49-0.14 0.35 0 0.69c3.62 9.18 22.58 9.18 24.16 0.46z"/>
			<path fill-rule="evenodd" class="s1" d="m10.96 26.51c-1.17-2.32-3.97 5.86-1.12 5.65 0.83-0.66 1.39-1.59 1.6-2.62 0.2-1.04 0.03-2.11-0.48-3.03z"/>
			<path fill-rule="evenodd" class="s1" d="m15.79 32.48q0.01 0.18 0.09 0.34 0.07 0.17 0.21 0.29 0.13 0.12 0.31 0.18 0.17 0.05 0.35 0.04c2.66-0.21 1.28-6.1 0-4.98-0.59 0.49-1.01 1.15-1.18 1.9-0.18 0.75-0.1 1.53 0.22 2.23z"/>
			<path fill-rule="evenodd" class="s0" d="m2.67 19.44c0.26-3.71 2.98-4.91 2.85-7.25q0.61-3.4 0.61-6.86c4.88 3.82 5.34 5.18 6.7 4.59q1.99-0.59 4.05-0.93 6.28-2.95 12.93-4.91c3.44-0.83 10.43-1.73 13.34-0.53 2.24 1.02 4.27 2.45 6 4.21 1.6 1.38 2.69 3.26 3.09 5.33 0.64 2.96 0 4.51 1.47 4.4q0.36-0.04 0.6-0.33 0.23-0.29 0.2-0.65c-0.3-4.48-0.46-6.54-3.76-10.16-1.83-2.12-4.04-3.87-6.51-5.18-3.63-1.65-11.17-0.96-15.09 0-4.54 1.18-8.95 2.81-13.15 4.88-1.23 0.35-2.45 0.51-3.65 0.91-1.87-1.63-5.39-4.72-7.18-4.69-3.2 0-1.94 6.69-1.6 10.08 0 1.22-2.37 3.12-2.53 6.98q-0.02 0.34 0.2 0.59 0.22 0.25 0.56 0.28 0.33 0.02 0.59-0.2 0.25-0.23 0.28-0.56z"/>
			<path fill-rule="evenodd" class="s0" d="m18 42.35c-7.28-2.08-8-2.67-9.87-1.58-1.86 1.1-1.86 3.07-3.09 4.3l-1.07 0.56c-0.66-3.34-2.37-7.47-2-9.82q0.02-0.33-0.19-0.6-0.21-0.26-0.54-0.33-0.33-0.06-0.62 0.1-0.29 0.17-0.41 0.49c-0.23 3.26 0.05 6.53 0.83 9.7-0.05 0.9 0.24 1.78 0.8 2.48 0.77 0.64 1.77 0.95 2.76 0.86 1-0.09 1.93-0.57 2.57-1.34q1.02-1.12 1.63-2.5c1.17-2.48 0-2.22 8.85-0.75q0.33 0.07 0.61-0.11 0.28-0.18 0.35-0.5 0.07-0.33-0.1-0.61-0.19-0.28-0.51-0.35z"/>
			<path fill-rule="evenodd" class="s0" d="m9.28 18.67h1.81q0.38-0.01 0.64-0.27 0.27-0.27 0.27-0.64c0.53-1.71-3.41-3.2-4.72-1.65q-0.59 0.88-0.8 1.92c0 0.5 0 0.85 0.32 0.96 0.32 0.1 0.27 0.21 0.45 0.18q0.97-0.44 2.03-0.5z"/>
			<path fill-rule="evenodd" class="s0" d="m24.53 22.24q0.13 0.35 0.47 0.51 0.34 0.16 0.69 0.04 0.35-0.13 0.52-0.47 0.15-0.34 0.03-0.69c0.02-0.85-0.27-1.68-0.8-2.34-0.53-0.67-1.27-1.12-2.11-1.29-0.94 0-1.87 0.28-2.66 0.8-0.38 0.43-0.75 0.75-0.54 1.25q0.02 0.16 0.1 0.3 0.08 0.14 0.21 0.24 0.13 0.1 0.28 0.14 0.16 0.04 0.32 0.02c0.66-0.08 1.33 0.02 1.94 0.28 0.61 0.27 1.15 0.68 1.55 1.21z"/>
			<path fill-rule="evenodd" class="s0" d="m31.65 8.29q-1.57 1-2.82 2.38c-0.67 1.3 0.45 1.78 1.41 1.49 0.96-0.29 6.08-2.67 8-2.99q0.32-0.06 0.54-0.31 0.21-0.25 0.21-0.58 0-0.33-0.21-0.58-0.22-0.25-0.54-0.31c-2.24-0.35-4.53-0.04-6.59 0.9z"/>
		</g>
	</g>
</svg>