<svg version="1.2" xmlns="http://www.w3.org/2000/svg" viewBox="0 0 64 64" width="64" height="64">
	<defs>
		<clipPath clipPathUnits="userSpaceOnUse" id="cp1">
			<path d="m0 0h64v64h-64z"/>
		</clipPath>
	</defs>
	<style>
		.s0 { fill: #022444 } 
		.s1 { fill: #8d1813 } 
	</style>
	<g id="Clip-Path" clip-path="url(#cp1)">
		<g>
			<path fill-rule="evenodd" class="s0" d="m45.07 9.63q-0.85-0.19-1.63-0.59-0.25-0.11-0.43-0.32-0.17-0.21-0.24-0.48c-0.26-1.36 0.64-2.03 1.79-2.21 1.51-0.2 3.05 0.04 4.43 0.69q0.28 0.16 0.6 0.07 0.31-0.09 0.48-0.38 0.15-0.28 0.07-0.6-0.1-0.31-0.38-0.48-1.08-0.67-2.32-0.98l0.21-0.32q0.21-0.26 0.35-0.56 0.03-0.4 0-0.8c0-0.59 0-1.1 0-1.68q0.1-0.34-0.06-0.65-0.17-0.31-0.5-0.42-0.33-0.07-0.63 0.09-0.3 0.17-0.41 0.5-0.59 0.76-1.07 1.6-0.17 0.31-0.24 0.66-0.11 0.34-0.13 0.7-0.02 0.29 0 0.58-0.97-0.05-1.92 0.19c-0.94 0.23-1.75 0.81-2.27 1.63-0.51 0.81-0.7 1.8-0.5 2.74q0.09 0.83 0.53 1.53 0.45 0.7 1.15 1.14 2.1 1.11 4.42 1.57c0.91 0.3 1.79 0.51 1.79 1.52 0 1.02-1.07 1.63-2.24 1.84-1.44 0.27-2.92 0.11-4.27-0.45q-0.56-0.29-0.96-0.8-0.38-0.58-0.69-1.2-0.06-0.19-0.2-0.33-0.13-0.13-0.32-0.2-0.18-0.06-0.38-0.03-0.19 0.02-0.35 0.13-0.31 0.17-0.43 0.5-0.1 0.33 0.05 0.65 0.45 1.01 1.1 1.89 0.53 0.63 1.22 1.07 0.61 0.37 1.28 0.59-0.14 0.3-0.21 0.64-0.04 0.33 0 0.66c0 0.56 0 1.04 0 1.6q-0.1 0.34 0.06 0.65 0.17 0.31 0.5 0.42 0.34 0.1 0.65-0.06 0.31-0.17 0.42-0.5 0.5-0.69 0.9-1.44 0.17-0.31 0.27-0.64 0.04-0.33 0-0.67v-0.02q1.45 0.11 2.88-0.19c0.96-0.17 1.82-0.66 2.46-1.4 0.63-0.73 1-1.66 1.03-2.63q0.06-0.86-0.27-1.65-0.33-0.79-0.98-1.36c-1.39-0.92-2.96-1.54-4.61-1.81z"/>
			<path fill-rule="evenodd" class="s0" d="m63.52 32.93q-0.13-0.85-0.63-1.55-0.5-0.71-1.26-1.11c-1.55-0.6-3.2-0.86-4.86-0.78q-0.86 0.01-1.7-0.21-0.25-0.06-0.46-0.22-0.2-0.16-0.32-0.39c-0.56-1.28 0.16-2.08 1.23-2.54 1.42-0.5 2.96-0.59 4.43-0.26q0.14 0.05 0.29 0.04 0.15-0.01 0.29-0.08 0.13-0.07 0.23-0.18 0.1-0.12 0.15-0.26 0.07-0.29-0.06-0.56-0.14-0.27-0.42-0.38-1.18-0.41-2.43-0.45c0 0 0-0.21 0-0.32q0.04-0.35 0-0.69 0.02-0.35 0-0.7c0-0.56-0.27-1.04-0.4-1.6q0.03-0.18-0.01-0.37-0.05-0.18-0.18-0.32-0.12-0.15-0.29-0.23-0.17-0.08-0.36-0.08-0.19 0-0.36 0.08-0.17 0.08-0.29 0.23-0.13 0.14-0.17 0.32-0.05 0.19-0.02 0.37-0.37 0.79-0.59 1.63-0.11 0.35-0.13 0.72-0.04 0.36 0 0.72l0.16 0.51q-0.95 0.17-1.81 0.61c-0.88 0.4-1.57 1.13-1.91 2.04-0.35 0.9-0.32 1.9 0.07 2.79q0.26 0.79 0.84 1.4 0.58 0.6 1.37 0.89 2.28 0.63 4.64 0.59c0.93 0 1.84 0 2.05 1.06 0.22 1.07-0.69 1.82-1.78 2.27-1.33 0.56-2.8 0.72-4.22 0.45q-0.6-0.16-1.09-0.56-0.59-0.46-1.07-1.04-0.23-0.2-0.55-0.22-0.31 0-0.56 0.2-0.24 0.2-0.3 0.51-0.05 0.31 0.11 0.58 0.64 0.89 1.46 1.6 0.66 0.52 1.44 0.8 0.67 0.22 1.36 0.29c0 0 0 0 0 0.22q-0.04 0.33 0 0.66-0.04 0.35 0 0.7c0 0.56 0.27 1.06 0.4 1.62q-0.04 0.19 0 0.37 0.03 0.18 0.14 0.34 0.11 0.15 0.28 0.24 0.16 0.09 0.35 0.11 0.18 0.01 0.36-0.05 0.17-0.07 0.31-0.2 0.13-0.13 0.19-0.31 0.07-0.18 0.05-0.36 0.36-0.81 0.59-1.66 0.11-0.33 0.13-0.69 0.04-0.36 0-0.72v-0.32q1.4-0.18 2.67-0.8c0.93-0.35 1.7-1.02 2.19-1.89 0.48-0.87 0.64-1.88 0.45-2.86z"/>
			<path fill-rule="evenodd" class="s0" d="m18.67 24.99c-0.45 1.59-1.34 3.02-2.56 4.13-1.23 1.17-2.68 2.08-4.27 2.67 0.21 1.17 0.21 2.56 0.21 3.84q0.05 0.18 0.02 0.36-0.04 0.18-0.14 0.33-0.11 0.15-0.27 0.25-0.16 0.09-0.34 0.12-0.18 0.02-0.36-0.04-0.17-0.06-0.31-0.18-0.14-0.13-0.21-0.3-0.07-0.17-0.07-0.36c-0.16-1.17-0.37-2.32-0.56-3.49h-0.53c-2.53 0.33-5.1-0.13-7.36-1.33q-0.3-0.17-0.41-0.5-0.11-0.33 0.04-0.65 0.07-0.15 0.2-0.26 0.12-0.11 0.28-0.16 0.16-0.05 0.32-0.04 0.17 0.01 0.32 0.09c1.98 0.91 4.2 1.17 6.34 0.74h0.54q-0.45-2.64-0.86-5.33l-0.48-3.55h-0.21c-1.6-0.03-3.15-0.57-4.43-1.54-0.72-0.52-1.29-1.22-1.64-2.04-0.34-0.82-0.45-1.72-0.3-2.6 0.22-1.13 0.69-2.2 1.38-3.12 0.69-0.92 1.57-1.68 2.59-2.22q0.88-0.42 1.84-0.64c0-1.44 0-2.74 0-4.1q0-0.31 0.22-0.53 0.22-0.22 0.53-0.22 0.3 0 0.52 0.22 0.22 0.22 0.22 0.53c0.14 1.25 0.32 2.61 0.51 3.92q2.17-0.09 4.32 0.16 0.31 0.03 0.51 0.27 0.2 0.24 0.18 0.55-0.03 0.3-0.26 0.5-0.24 0.19-0.54 0.17-2-0.16-4 0c0.24 1.84 0.51 3.57 0.75 5.33 0.08 0.78 0.27 1.55 0.27 2.32q1.63-0.11 3.25 0.14c0.88 0.12 1.72 0.44 2.44 0.95 0.73 0.5 1.33 1.17 1.75 1.95 0.65 1.1 0.85 2.41 0.56 3.66zm-10.91-6.59v-0.93c-0.29-2.08-0.29-4.14-0.29-6.22q-0.48 0.16-0.91 0.4c-1.16 0.74-2.01 1.86-2.4 3.18-0.19 0.52-0.2 1.09-0.02 1.62 0.17 0.52 0.52 0.98 0.98 1.28 0.8 0.48 1.71 0.71 2.64 0.67zm8.15 5.46q-0.05-0.52-0.31-0.98-0.35-0.64-0.95-1.05-0.6-0.4-1.32-0.5-1.19-0.22-2.4-0.21c0.08 0.72 0.24 1.41 0.24 2.13 0.19 2 0.48 4.03 0.48 6.03q1.5-0.8 2.67-2.03 0.98-1.03 1.47-2.37 0.17-0.5 0.12-1.02z"/>
			<path fill-rule="evenodd" class="s1" d="m45.33 42.48q-0.6 2.71-1.52 5.33c-0.72 2.54-2.01 4.88-3.79 6.84-1.77 1.95-3.96 3.47-6.42 4.44-3.76 1.58-7.82 2.28-11.89 2.06-4.09-0.36-8.02-1.77-11.42-4.08-3.5-2.19-6.04-5.64-7.09-9.63-0.65-1.87-0.83-3.88-0.53-5.84 0-1.92-0.96-2.11-1.58-0.96-1.09 2.35-0.74 3.6 0.03 7.36 1.05 4.6 3.82 8.63 7.73 11.25 3.68 2.65 7.98 4.29 12.48 4.75 4.57 0.29 9.15-0.52 13.34-2.37 2.78-1.2 5.24-3.03 7.19-5.35 1.95-2.31 3.34-5.05 4.06-7.99 0.91-2.14 1.31-4.47 1.15-6.8-0.11-1.2-1.2-1.49-1.74 0.99z"/>
			<path fill-rule="evenodd" class="s1" d="m23.36 41.39c1.31 0.53 2.67 0.96 3.97 1.36 1.98 0.53 3.98 0.98 5.95 1.46q0.34 0.1 0.65-0.06 0.31-0.16 0.42-0.5 0.05-0.16 0.03-0.32-0.02-0.17-0.09-0.31-0.08-0.15-0.21-0.26-0.13-0.1-0.29-0.15c-1.9-0.72-3.82-1.36-5.68-2.1q-1.84-0.71-3.58-1.63-0.76-0.25-1.49-0.59 0.59-2.12 1.41-4.16c0.91-2.42 1.92-4.82 2.8-7.22q0.07-0.14 0.08-0.28 0.01-0.15-0.04-0.29-0.05-0.14-0.15-0.25-0.1-0.11-0.23-0.17-0.28-0.12-0.57-0.02-0.29 0.12-0.42 0.39c-1.44 2.67-3.15 5.34-4.4 8q-0.84 1.86-1.39 3.82-0.1 0.42 0 0.83 0.11 0.42 0.4 0.74 1.3 1.04 2.83 1.71z"/>
		</g>
	</g>
</svg>