<svg version="1.2" xmlns="http://www.w3.org/2000/svg" viewBox="0 0 49 48" width="49" height="48">
	<defs>
		<clipPath clipPathUnits="userSpaceOnUse" id="cp1">
			<path d="m0.5 0h48v48h-48z"/>
		</clipPath>
	</defs>
	<style>
		.s0 { fill: #022444 } 
		.s1 { fill: #8d1813 } 
	</style>
	<g id="Clip-Path" clip-path="url(#cp1)">
		<g>
			<path fill-rule="evenodd" class="s0" d="m27.24 41.44q0.11 0.11 0.17 0.25 0.06 0.14 0.06 0.29 0 0.15-0.06 0.29-0.06 0.15-0.17 0.25c-0.04 0-0.2 0-0.2 0q0.04 0.27-0.12 0.5c-1.46 2-3.48 3.51-5.81 4.33-2.33 0.83-4.86 0.94-7.25 0.31-1.93-0.38-3.77-1.12-5.42-2.18-2.54-1.62-4.52-3.98-5.66-6.76-0.58-1.74-0.73-3.59-0.42-5.4 0.25-1.72 0.78-3.38 1.58-4.92q0.68-1.36 1.68-2.5 0.79-0.84 1.72-1.52-0.07-0.14-0.07-0.29 0-0.15 0.07-0.29 0.17-0.21 0.45-0.25 0.27-0.03 0.49 0.13c0.22 0.1 0.22 0.32 0.44 0.32q1.2 0.93 2.28 2 1.23 1.27 2.28 2.7 0.62 0.79 1.1 1.66 0.12 0.26 0.12 0.54 0 0.28-0.12 0.54-0.35 0.62-0.98 0.96c-0.6 0.36-1.5 0.54-2.12 0.88 0.12 0.2 0.28 0.46 0.28 0.46q0.37 0.97 0.98 1.82 0.62 0.87 1.4 1.6l1.22 0.98c1.16 0.72 0.74 1.36 1.52 0.18q0.71-1.29 1.6-2.46c0.41-0.48 0.95-0.82 1.56-0.98 0.38-0.06 0.77 0.02 1.1 0.22q0.73 0.5 1.4 1.08 1.17 0.91 2.16 2c0.96 1 1.84 2.1 2.74 3.26zm-6.76 3.95c2.02-0.62 3.8-1.83 5.12-3.47 0.14 0 0.14 0 0.14 0-0.82-0.88-1.62-1.76-2.5-2.58q-0.94-0.88-2-1.6-0.63-0.22-1.18-0.6-0.17 0.26-0.3 0.54c-0.48 0.8-0.92 1.8-1.42 2.5-0.35 0.52-0.84 0.92-1.42 1.16-0.43 0.16-0.91 0.16-1.34 0q-0.93-0.47-1.78-1.06l-1.56-1.22q-0.97-0.91-1.74-2-0.7-1.14-1.1-2.42-0.28-0.74-0.44-1.52-0.04-0.3 0.04-0.59 0.08-0.28 0.28-0.51 0.45-0.48 1.06-0.7c0.56-0.26 1.28-0.42 1.88-0.64-0.16-0.36-0.3-0.86-0.3-0.86q-0.9-1.44-2-2.72-0.8-0.88-1.68-1.68-0.78 0.65-1.4 1.44-0.79 1.06-1.28 2.28-0.88 2.13-1.06 4.42c-0.2 1.45-0.02 2.92 0.52 4.28 0.99 2.29 2.64 4.22 4.74 5.56 1.4 0.91 2.93 1.58 4.54 2 2.02 0.62 4.17 0.61 6.18-0.01z"/>
			<path fill-rule="evenodd" class="s0" d="m23.33 18.68q0.27-0.01 0.49 0.16c1.12 0.86 2.49 1.3 3.9 1.26-0.1-1.1-0.28-2.06-0.28-3.1q0-0.64 0-1.28-0.96 0.02-1.88-0.28-0.82-0.34-1.36-1.04-0.53-0.7-0.64-1.58-0.16-0.75-0.02-1.5 0.14-0.75 0.57-1.39 0.42-0.63 1.06-1.05 0.64-0.42 1.39-0.56 0.76-0.2 1.54-0.24c0.18-1.22 0.34-2.46 0.56-3.68q0.04-0.27 0.25-0.45 0.21-0.17 0.49-0.15 0.27 0.03 0.45 0.25 0.17 0.21 0.15 0.49 0 1.8 0 3.58c1.27 0.12 2.51 0.48 3.64 1.08q0.24 0.14 0.32 0.4 0.08 0.27-0.04 0.52-0.06 0.12-0.16 0.2-0.1 0.09-0.23 0.13-0.13 0.04-0.26 0.03-0.13-0.02-0.25-0.08-1.45-0.58-3.02-0.58c0 0.48 0 0.84 0 1.46q0 0.92 0 1.88 1.57-0.17 3.1 0.2c0.57 0.15 1.1 0.46 1.51 0.88 0.41 0.43 0.7 0.96 0.83 1.54q0.26 0.93 0.13 1.88-0.13 0.96-0.63 1.78-0.5 0.83-1.29 1.39-0.79 0.55-1.73 0.75-1.11 0.34-2.26 0.42 0 0.84 0 1.72 0.01 0.15-0.04 0.29-0.05 0.15-0.15 0.26-0.11 0.11-0.24 0.18-0.14 0.06-0.29 0.07-0.15 0.01-0.3-0.04-0.15-0.05-0.26-0.15-0.12-0.11-0.18-0.25-0.06-0.14-0.06-0.3c-0.16-0.6-0.16-1.22-0.16-1.84-1.89-0.06-3.71-0.77-5.14-2q-0.21-0.23-0.22-0.54 0.01-0.31 0.22-0.54 0.21-0.18 0.49-0.18zm7.25-3.02h-0.62q0 0.66 0 1.3c-0.12 0.98-0.12 1.98-0.12 2.98h0.24c1.96-0.4 3.68-1.5 3.06-3.5q-0.12-0.31-0.38-0.5-0.27-0.19-0.6-0.2-0.79-0.12-1.58-0.08zm-2.98-2.36c0.02-0.72 0.08-1.74 0.12-2.14 0.04-0.4 0.18-0.8 0.18-1.2-1.32 0.32-2.34 1-2 2.42 0.18 0.84 0.86 0.94 1.7 0.92z"/>
			<path fill-rule="evenodd" class="s1" d="m44.38 6.68c-1.09-1.5-2.45-2.8-4-3.82-1.57-1.02-3.28-1.78-5.08-2.28-2.85-0.64-5.81-0.67-8.68-0.08-2.86 0.59-5.57 1.78-7.94 3.5-4.94 3.5-8 9.02-6 15.32q0.36 1.17 0.9 2.26 0.47 1.06 1.12 2.02 1.05 1.41 2.4 2.54 1.61 1.26 3.4 2.26l-0.4 3.6c0 0 0 0.82 0 1.12 0 1.14 1.28 1.32 1.32 1.32q0.5-0.05 0.92-0.32 0.51-0.39 0.98-0.84 0.82-0.76 1.52-1.64 1.01-1.31 1.8-2.76 0.09-0.12 0.12-0.27 0.03-0.15 0.01-0.3-0.03-0.15-0.11-0.27-0.08-0.13-0.2-0.22-0.12-0.09-0.27-0.12-0.15-0.03-0.3-0.01-0.15 0.03-0.27 0.11-0.13 0.08-0.22 0.2-0.85 0.94-1.78 1.8-0.6 0.55-1.26 1.04c-0.24-1.48-0.12-3.74-1.16-3.72q-0.08-0.02-0.16 0-1.56-0.94-2.96-2.12c-1.85-1.65-3.16-3.83-3.76-6.24-1.44-5.46 1.42-10 5.7-12.88 2.1-1.46 4.48-2.47 6.99-2.96 2.51-0.49 5.1-0.45 7.59 0.12q2.31 0.67 4.32 2c1.33 0.82 2.5 1.89 3.44 3.14 1.38 1.95 2.16 4.26 2.24 6.64 0.18 2.39-0.4 4.78-1.66 6.82-0.88 1.34-2.07 2.46-3.46 3.26-2.22 1.21-4.63 2.05-7.12 2.48-0.92 0.18-1.84 0.4-2.78 0.52q-0.89 0.09-1.78 0-0.31-0.02-0.55 0.19-0.24 0.21-0.26 0.52-0.02 0.31 0.19 0.55 0.21 0.24 0.52 0.26 1 0.1 2 0c0.98-0.1 2-0.28 2.9-0.46 2.75-0.37 5.42-1.2 7.9-2.46 1.67-0.91 3.11-2.2 4.2-3.76 1.56-2.37 2.34-5.17 2.24-8-0.05-2.88-0.94-5.68-2.56-8.06z"/>
		</g>
	</g>
</svg>