<svg version="1.2" xmlns="http://www.w3.org/2000/svg" viewBox="0 0 49 48" width="49" height="48">
	<defs>
		<clipPath clipPathUnits="userSpaceOnUse" id="cp1">
			<path d="m0.5 0h48v48h-48z"/>
		</clipPath>
	</defs>
	<style>
		.s0 { fill: #022444 } 
		.s1 { fill: #8d1813 } 
	</style>
	<g id="Clip-Path" clip-path="url(#cp1)">
		<g>
			<path fill-rule="evenodd" class="s0" d="m17.98 14.3q-0.1-0.08-0.16-0.19-0.06-0.11-0.08-0.24-0.01-0.13 0.02-0.25 0.04-0.12 0.12-0.22 0.08-0.1 0.19-0.16 0.11-0.06 0.24-0.08 0.13-0.01 0.25 0.03 0.12 0.03 0.22 0.11c1.45 0.84 3.11 1.22 4.78 1.1h0.7c-0.12-0.82-0.12-1.62-0.12-2.46q0-1.26 0-2.56-1.01 0.02-2-0.2-1.22-0.36-2.2-1.18-0.44-0.37-0.69-0.9-0.25-0.52-0.25-1.1c0.06-0.47 0.27-0.91 0.6-1.26q0.84-0.97 2-1.54c0.97-0.47 2.02-0.74 3.1-0.78q0.11-0.9 0.26-1.8 0.04-0.2 0.2-0.34 0.16-0.13 0.37-0.13 0.21 0 0.37 0.13 0.16 0.14 0.2 0.34 0 0.88 0 1.76c1.6 0.22 3.16 0.71 4.6 1.44q0.21 0.1 0.29 0.32 0.08 0.22-0.01 0.44-0.05 0.11-0.13 0.18-0.08 0.08-0.19 0.12-0.11 0.04-0.22 0.04-0.12-0.01-0.22-0.06-1.92-0.84-4-1.06 0 1.5 0 3 0.01 0.26 0 0.52 1.43-0.04 2.84 0.24c0.64 0.08 1.25 0.32 1.76 0.71 0.52 0.39 0.92 0.9 1.18 1.49q0.24 0.68 0.18 1.4-0.06 0.71-0.42 1.34c-0.59 1.02-1.46 1.86-2.5 2.42q-1.6 0.79-3.38 0.96c-0.06 0.82-0.16 1.64-0.16 2.46q0 0.26-0.19 0.45-0.19 0.19-0.45 0.19-0.13 0-0.25-0.05-0.12-0.05-0.21-0.14-0.09-0.1-0.14-0.22-0.04-0.12-0.04-0.25c-0.14-0.78-0.14-1.56-0.14-2.32h-0.8c-1.97 0.01-3.9-0.58-5.52-1.7zm3.48-7.72q0.6 0.39 1.3 0.54 0.69 0.16 1.4 0.16 0.12-1.7 0.34-3.4-1.07 0.2-2 0.76-0.61 0.32-1.12 0.78c-0.2 0.2-0.42 0.36-0.4 0.62 0.02 0.26 0.3 0.4 0.52 0.54zm4.66 5.54q-0.03 1.01-0.18 2.04 1.22-0.24 2.3-0.86 0.89-0.53 1.48-1.38 0.23-0.3 0.29-0.67 0.07-0.37-0.05-0.73c-0.22-0.52-0.78-0.68-1.42-0.82q-1.18-0.23-2.38-0.24 0 1.32 0 2.66z"/>
			<path fill-rule="evenodd" class="s1" d="m25.1 20q-0.24 0-0.41 0.16-0.17 0.16-0.19 0.4c-0.16 1.08-0.38 2.12-0.46 3.22q0 0.66 0 1.36 0 0.69 0 1.38c0.12 1.06 0.28 2 0.4 3.16q0 0.13 0.04 0.25 0.05 0.12 0.13 0.21 0.09 0.09 0.21 0.14 0.11 0.06 0.24 0.06 0.13 0 0.25-0.04 0.13-0.05 0.22-0.14 0.1-0.09 0.15-0.21 0.06-0.12 0.06-0.25c0.14-1.08 0.28-2.12 0.36-3.22q0-0.67 0-1.36 0-0.7 0-1.36c-0.12-1.08-0.34-2.1-0.48-3.18q0.01-0.11-0.03-0.21-0.03-0.11-0.11-0.19-0.07-0.08-0.17-0.13-0.1-0.05-0.21-0.05z"/>
			<path fill-rule="evenodd" class="s0" d="m15.26 44.28q0.28 1.47 0.2 2.96 0.02 0.27-0.14 0.48-0.17 0.21-0.44 0.24-0.13 0.02-0.25-0.02-0.13-0.03-0.23-0.12-0.1-0.08-0.15-0.2-0.06-0.11-0.07-0.24-0.38-1.51-1.1-2.9c-0.16-0.36-0.38-0.82-0.5-1.06-0.12-0.24-0.2-0.48-0.34-0.72q-0.46-0.99-1.2-1.8-0.7 0.29-1.46 0.38-0.13 0.02-0.27-0.01-0.13-0.04-0.23-0.13-0.06 0.18-0.22 0.29-0.17 0.11-0.36 0.09-1.01 0.01-2-0.2-0.04 0.12-0.12 0.21-0.08 0.09-0.2 0.13-0.94 0.77-1.68 1.74l-0.52 0.84q-1.07 1.34-1.64 2.96-0.01 0.14-0.08 0.25-0.07 0.12-0.18 0.2-0.12 0.08-0.25 0.11-0.13 0.03-0.27 0-0.13-0.03-0.24-0.11-0.11-0.09-0.18-0.21-0.06-0.12-0.07-0.25-0.02-0.14 0.03-0.27 0.06-1.43 0.5-2.8 0.23-0.61 0.6-1.16 0.39-0.55 0.92-0.96 0.99-0.79 2.18-1.22h-0.14c-0.74-0.45-1.31-1.15-1.6-1.96-0.3-0.82-0.3-1.72-0.02-2.54 0.39-1.17 1.13-2.19 2.12-2.92 0.98-0.78 2.17-1.23 3.42-1.3 0.79-0.02 1.58 0.17 2.28 0.54 0.7 0.37 1.29 0.91 1.72 1.58q0.64 0.95 0.79 2.08 0.15 1.14-0.23 2.22c-0.26 0.7-0.73 1.31-1.34 1.74q-0.09 0.07-0.2 0.12 1.15 0.65 2 1.66 0.41 0.5 0.68 1.08 0.3 0.58 0.48 1.2zm-4.2-4.94c0.47-0.32 0.82-0.79 0.98-1.34q0.16-0.69 0.01-1.39-0.15-0.69-0.59-1.25-0.39-0.54-0.99-0.83-0.6-0.29-1.27-0.27c-0.8 0.08-1.57 0.38-2.22 0.86-0.69 0.46-1.25 1.09-1.6 1.84-0.2 0.47-0.24 0.99-0.11 1.48 0.13 0.5 0.42 0.93 0.83 1.24q0.45 0.4 1.04 0.56 0.68 0.17 1.38 0.24 0.14-0.03 0.28 0 0.05-0.19 0.19-0.32 0.14-0.13 0.33-0.16 0.94-0.15 1.74-0.66z"/>
			<path fill-rule="evenodd" class="s0" d="m31.58 44.32q0.28 1.47 0.2 2.96 0.02 0.27-0.14 0.48-0.17 0.21-0.44 0.24-0.13 0.01-0.25-0.02-0.12-0.04-0.22-0.12-0.1-0.09-0.16-0.2-0.06-0.11-0.07-0.24-0.38-1.47-1.06-2.84-0.26-0.54-0.52-1.06-0.15-0.37-0.34-0.72-0.46-0.99-1.2-1.8-0.7 0.29-1.46 0.38-0.13 0.02-0.27-0.01-0.13-0.04-0.23-0.13-0.06 0.18-0.22 0.29-0.17 0.11-0.36 0.09-1.01 0.02-2-0.2-0.02 0.11-0.1 0.2-0.07 0.09-0.18 0.14-0.94 0.77-1.68 1.74l-0.58 0.74q-1.06 1.35-1.64 2.96-0.01 0.14-0.08 0.26-0.07 0.11-0.18 0.19-0.11 0.08-0.25 0.11-0.13 0.03-0.27 0-0.13-0.03-0.24-0.11-0.11-0.09-0.18-0.21-0.06-0.12-0.07-0.25-0.02-0.14 0.03-0.27 0.06-1.43 0.5-2.8 0.23-0.61 0.6-1.16 0.39-0.55 0.92-0.96 1-0.83 2.22-1.28h-0.12c-0.75-0.45-1.31-1.14-1.61-1.96-0.3-0.82-0.31-1.72-0.03-2.54 0.41-1.15 1.17-2.15 2.16-2.86 0.98-0.78 2.17-1.23 3.42-1.3 0.79-0.02 1.58 0.16 2.28 0.53 0.7 0.38 1.29 0.92 1.72 1.59q0.64 0.95 0.79 2.08 0.15 1.14-0.23 2.22c-0.26 0.7-0.72 1.3-1.32 1.74l-0.22 0.12q1.15 0.65 2 1.66 0.37 0.51 0.62 1.08 0.28 0.6 0.46 1.24zm-4.2-4.98c0.47-0.32 0.82-0.79 0.98-1.34q0.17-0.69 0.02-1.39-0.16-0.69-0.6-1.25-0.39-0.53-0.98-0.83-0.6-0.29-1.26-0.27c-0.81 0.08-1.59 0.37-2.24 0.86-0.69 0.46-1.24 1.09-1.6 1.84-0.2 0.47-0.24 0.99-0.11 1.48 0.13 0.5 0.42 0.93 0.83 1.24q0.46 0.41 1.06 0.56 0.67 0.17 1.36 0.24 0.14-0.03 0.28 0 0.05-0.19 0.19-0.32 0.14-0.13 0.33-0.16 0.94-0.15 1.74-0.66z"/>
			<path fill-rule="evenodd" class="s0" d="m47.92 47.24q0.02 0.27-0.14 0.48-0.17 0.21-0.44 0.24-0.13 0.01-0.25-0.02-0.12-0.04-0.22-0.12-0.1-0.09-0.16-0.2-0.06-0.11-0.07-0.24-0.39-1.51-1.08-2.9-0.26-0.54-0.5-1.06l-0.34-0.72q-0.49-0.98-1.22-1.8-0.7 0.29-1.46 0.38-0.13 0.02-0.26-0.02-0.12-0.03-0.22-0.12-0.07 0.18-0.24 0.29-0.16 0.1-0.36 0.09-0.96 0.01-1.9-0.2-0.03 0.12-0.11 0.21-0.08 0.09-0.19 0.13-0.93 0.78-1.68 1.74l-0.58 0.74q-1.08 1.3-1.68 2.88-0.03 0.13-0.1 0.23-0.08 0.11-0.18 0.17-0.11 0.07-0.24 0.1-0.12 0.02-0.25-0.01-0.12-0.03-0.23-0.1-0.11-0.08-0.17-0.18-0.07-0.11-0.1-0.24-0.02-0.12 0.01-0.25 0.07-1.43 0.5-2.8 0.23-0.61 0.6-1.16 0.39-0.55 0.92-0.96 1.02-0.73 2.22-1.1h-0.12c-0.75-0.45-1.31-1.14-1.61-1.96-0.3-0.82-0.31-1.72-0.03-2.54 0.41-1.17 1.16-2.19 2.14-2.94 0.99-0.75 2.17-1.19 3.4-1.28 0.79-0.02 1.58 0.16 2.28 0.53 0.7 0.37 1.29 0.92 1.72 1.59q0.64 0.95 0.79 2.08 0.15 1.14-0.23 2.22c-0.26 0.7-0.72 1.3-1.32 1.74l-0.22 0.12q1.14 0.66 2 1.66 0.4 0.53 0.68 1.14 0.27 0.6 0.42 1.24 0.29 1.45 0.22 2.92zm-4.42-7.9c0.48-0.32 0.83-0.79 1-1.34q0.17-0.69 0.03-1.38-0.15-0.7-0.59-1.26-0.39-0.54-0.98-0.83-0.6-0.29-1.26-0.27c-0.81 0.1-1.59 0.4-2.26 0.87-0.67 0.47-1.21 1.1-1.58 1.83-0.2 0.47-0.23 0.99-0.1 1.49 0.14 0.49 0.43 0.92 0.84 1.23q0.45 0.41 1.04 0.56 0.67 0.17 1.36 0.24 0.14-0.03 0.28 0 0.05-0.19 0.2-0.32 0.14-0.13 0.34-0.16 0.91-0.16 1.68-0.66z"/>
			<path fill-rule="evenodd" class="s1" d="m18.5 24.6q1.18-1.91 2-4 0.03-0.18-0.04-0.35-0.08-0.16-0.24-0.25-0.1-0.06-0.21-0.07-0.11-0.02-0.22 0.01-0.11 0.04-0.19 0.11-0.09 0.07-0.14 0.17c-0.86 1.26-2 2.5-3.12 3.82-0.7 0.82-1.34 1.68-2 2.44q-1.13 1.29-2.52 2.28-0.11 0.06-0.2 0.16-0.08 0.1-0.12 0.23-0.03 0.12-0.02 0.25 0.02 0.13 0.08 0.24 0.06 0.12 0.16 0.2 0.1 0.09 0.22 0.12 0.13 0.04 0.26 0.03 0.13-0.02 0.24-0.09 2.04-0.91 3.72-2.4 0.7-0.63 1.32-1.34 0.56-0.74 1.02-1.56z"/>
			<path fill-rule="evenodd" class="s1" d="m35.6 27.44q1.68 1.49 3.72 2.4 0.11 0.06 0.24 0.08 0.13 0.01 0.25-0.03 0.13-0.03 0.23-0.12 0.1-0.08 0.16-0.19 0.06-0.11 0.08-0.24 0.01-0.13-0.03-0.25-0.03-0.13-0.12-0.23-0.08-0.1-0.19-0.16-1.38-1-2.52-2.28c-0.72-0.76-1.36-1.62-2-2.44q-1.65-1.82-3.1-3.82-0.05-0.1-0.14-0.17-0.09-0.08-0.2-0.11-0.11-0.03-0.23-0.01-0.11 0.01-0.21 0.07-0.1 0.05-0.17 0.14-0.07 0.08-0.11 0.19-0.03 0.11-0.02 0.22 0.01 0.11 0.06 0.21 0.82 2.09 2 4 0.51 0.79 1.12 1.5 0.56 0.65 1.18 1.24z"/>
		</g>
	</g>
</svg>