<svg version="1.2" xmlns="http://www.w3.org/2000/svg" viewBox="0 0 48 49" width="48" height="49">
	<defs>
		<clipPath clipPathUnits="userSpaceOnUse" id="cp1">
			<path d="m0 0.57h48v48h-48z"/>
		</clipPath>
	</defs>
	<style>
		.s0 { fill: #8d1813 } 
		.s1 { fill: #022444 } 
	</style>
	<g id="Clip-Path" clip-path="url(#cp1)">
		<g>
			<path fill-rule="evenodd" class="s0" d="m14.9 4.87q0.24-0.31 0.42-0.66 0.18-0.34 0.3-0.7c0.84-2.3 0.68-2.58 0.38-2.82-0.3-0.24-0.96-0.28-2.46 1.62q-0.27 0.31-0.48 0.66-0.2 0.35-0.32 0.74c0 0-0.74 2.44-0.08 2.86 0.66 0.42 2.2-1.66 2.24-1.7z"/>
			<path fill-rule="evenodd" class="s0" d="m5.28 7.09q0.38 0.43 0.84 0.76c0.22 0.14 2.34 1.32 2.84 0.7 0.14-0.16 0.5-0.44-1.04-2.44q-0.23-0.29-0.52-0.52-0.3-0.24-0.64-0.42c-2.4-1.26-2.76-0.6-2.76-0.42 0 0.18-0.3 0.66 1.28 2.34z"/>
			<path fill-rule="evenodd" class="s0" d="m6.58 12.91q-0.41 0.17-0.76 0.44-0.33 0.27-0.62 0.58c-1.76 2.1-1.2 2.48-1.1 2.64 0.1 0.16 0.38 0.66 3.26-1.16q0.27-0.2 0.52-0.44c1.7-1.58 1.76-1.58 1.6-2-0.3-0.96-2.86-0.08-2.9-0.06z"/>
			<path fill-rule="evenodd" class="s1" d="m21.27 37.26q0.3 0.01 0.53 0.21c0.96 0.72 2.14 1.11 3.34 1.1-0.08-0.9-0.26-1.78-0.26-2.7q0-0.52 0-1.04-0.82 0-1.6-0.26-0.77-0.28-1.28-0.91-0.51-0.64-0.62-1.45-0.15-0.69-0.03-1.39 0.13-0.69 0.52-1.29 0.39-0.59 0.98-0.98 0.59-0.39 1.29-0.52 0.65-0.16 1.32-0.2c0.18-1.08 0.34-2.18 0.54-3.26q0-0.14 0.05-0.26 0.06-0.13 0.16-0.23 0.1-0.09 0.22-0.14 0.13-0.05 0.27-0.05 0.13 0.01 0.25 0.07 0.12 0.06 0.2 0.17 0.08 0.1 0.12 0.22 0.04 0.13 0.03 0.26c0 1.16 0 2.12 0 3.16 1.13 0.11 2.22 0.44 3.22 0.98q0.14 0.05 0.24 0.15 0.1 0.11 0.16 0.24 0.05 0.14 0.04 0.28-0.01 0.15-0.08 0.28-0.06 0.13-0.18 0.22-0.11 0.09-0.25 0.13-0.14 0.03-0.29 0.01-0.14-0.03-0.26-0.11-1.24-0.5-2.58-0.52c0 0.42 0 0.74 0 1.26q0 0.78 0 1.56 1.39-0.14 2.74 0.2 0.82 0.22 1.41 0.83 0.58 0.61 0.77 1.43 0.24 0.86 0.12 1.74-0.12 0.89-0.58 1.65-0.47 0.76-1.2 1.28-0.73 0.51-1.6 0.69-0.98 0.32-2 0.38 0 0.73 0 1.46 0.01 0.15-0.04 0.3-0.05 0.14-0.15 0.26-0.1 0.11-0.24 0.17-0.14 0.07-0.29 0.07-0.31 0.01-0.54-0.2-0.23-0.21-0.26-0.52c-0.14-0.54-0.14-1.08-0.14-1.6-1.69-0.08-3.3-0.73-4.58-1.84q-0.11-0.11-0.17-0.25-0.06-0.14-0.06-0.29 0-0.15 0.06-0.29 0.06-0.14 0.17-0.25 0.23-0.2 0.53-0.21zm6.53-2.47h-0.48q0 0.52 0 1.04c-0.04 0.88-0.14 1.72-0.14 2.58h0.12c1.7-0.36 3.2-1.3 2.66-3.02q-0.1-0.25-0.31-0.4-0.22-0.16-0.49-0.16-0.68-0.09-1.36-0.04zm-3.3-2.44q0.26 0.02 0.52 0 0-0.87 0-1.74 0.05-0.47 0.16-0.94c-1.02 0.26-1.8 0.84-1.52 2 0.08 0.42 0.34 0.56 0.84 0.68z"/>
			<path fill-rule="evenodd" class="s1" d="m43.54 36.43c-1.19 3.61-3.62 6.67-6.86 8.66-3.09 2.04-6.66 3.24-10.36 3.48-3.72 0.13-7.37-0.96-10.42-3.1-1.55-1.06-2.84-2.46-3.78-4.09-0.94-1.63-1.5-3.45-1.64-5.33q-0.19-2.53 0.2-5.04 0.36-2.5 1.32-4.84 0.08-0.25 0.31-0.39 0.23-0.12 0.49-0.07 0.12 0.05 0.22 0.14 0.1 0.09 0.15 0.21 0.05 0.12 0.06 0.26 0 0.13-0.05 0.25c-1.14 3-1.54 6.23-1.18 9.42 0.19 1.59 0.74 3.11 1.59 4.46 0.86 1.35 2 2.49 3.35 3.34 2.71 1.76 5.92 2.59 9.14 2.36 3.25-0.25 6.38-1.32 9.1-3.12 2.79-1.63 4.91-4.18 6-7.22 0.91-2.65 0.87-5.53-0.1-8.16-1.13-2.66-2.87-5.01-5.08-6.86-1.18-0.98-2.54-1.73-4-2.22-1.41-0.51-2.9-0.78-4.4-0.78q-0.06 0.22-0.26 0.34c-0.08 0-0.22 0-0.22 0q-0.6 1.95-1.82 3.6-0.68 0.83-1.52 1.5-0.84 0.66-1.78 1.14c-1.51 0.78-3.14 1.29-4.82 1.52q-0.15 0.04-0.3 0.01-0.15-0.02-0.28-0.1-0.12-0.08-0.21-0.2-0.09-0.12-0.13-0.27-0.04-0.15-0.01-0.3 0.02-0.15 0.1-0.28 0.08-0.12 0.2-0.21 0.12-0.09 0.27-0.13 1.99-0.77 3.72-2 0.72-0.51 1.4-1.08l1.34-1.16q1.32-1.22 2.3-2.74l-1.02-1.02c-0.2-0.22-0.42-0.42-0.6-0.66q-0.12-0.2-0.26-0.38-0.05 0.23-0.16 0.44-0.59 0.93-1.42 1.66-0.81 0.77-1.72 1.4c-0.86 0.64-1.76 1.2-2.66 1.78q-0.96 0.66-2 1.18-0.84 0.36-1.74 0.48h-0.08c0.06 0.16 0.2 0.3 0.2 0.46 0.3 0.66 0.46 1.34 0.8 2q0.19 0.25 0.16 0.56-0.05 0.31-0.29 0.51-0.25 0.19-0.56 0.16-0.31-0.04-0.51-0.29-0.94-0.77-1.66-1.74-0.34-0.4-0.56-0.88-0.24-0.45-0.36-0.94 0-0.23 0-0.44-0.42-0.28-0.68-0.71-0.25-0.44-0.28-0.95c-0.02-0.71 0.18-1.41 0.58-2q1-1.39 2.38-2.42l1.06-0.74 0.76-0.42-0.26-0.3c-0.34-0.4-0.72-0.8-1.06-1.24-0.6-0.78-1.04-1.6-1.64-2.36q-0.23-0.17-0.28-0.45-0.04-0.28 0.12-0.51 0.17-0.23 0.45-0.28 0.28-0.04 0.51 0.12 1.27 0.59 2.38 1.44 0.46 0.38 0.82 0.84 0.38 0.43 0.66 0.92 0.12 0.25 0.2 0.52l0.9-0.52c0.99-0.48 2.06-0.76 3.16-0.82 0.82-0.17 1.67-0.13 2.47 0.12 0.79 0.24 1.52 0.69 2.09 1.3q0.74 0.67 1.18 1.56 0.33 0.69 0.58 1.42c0.06 0 0.18 0 0.18 0 1.74-0.09 3.48 0.13 5.14 0.66 1.69 0.51 3.26 1.33 4.64 2.42 2.53 1.97 4.54 4.52 5.86 7.44 1.3 3.07 1.47 6.5 0.48 9.68zm-20.82-22.44q0.03-0.2 0.16-0.36-0.9-0.13-1.8 0-1.31 0.22-2.42 0.94l-1 0.74c0 0.12 0 0.12 0 0.12q0.12 0.29 0.02 0.59-0.12 0.29-0.4 0.43-0.24 0.09-0.49 0.02-0.24-0.09-0.39-0.3l-0.9 0.66-0.84 0.68q-0.81 0.72-1.46 1.58c-0.12 0.18-0.36 0.44-0.48 0.62h1.06q0.73-0.06 1.4-0.34c0.56-0.22 1.06-0.5 1.58-0.76 0.9-0.48 1.82-0.94 2.7-1.48q0.86-0.5 1.64-1.12 0.58-0.44 1.08-0.98 0.39-0.46 0.54-1.04z"/>
		</g>
	</g>
</svg>