<svg version="1.2" xmlns="http://www.w3.org/2000/svg" viewBox="0 0 48 48" width="48" height="48">
	<defs>
		<clipPath clipPathUnits="userSpaceOnUse" id="cp1">
			<path d="m0 0h48v48h-48z"/>
		</clipPath>
	</defs>
	<style>
		.s0 { fill: #022444 } 
		.s1 { fill: #8d1813 } 
	</style>
	<g id="Clip-Path" clip-path="url(#cp1)">
		<g>
			<path fill-rule="evenodd" class="s0" d="m46.82 21.74q-4.34-1.64-8.94-2.28c-6.72-1.02-23.48-0.24-25.54-0.3q-0.14 0-0.26 0.04-0.13 0.05-0.23 0.14-0.09 0.1-0.15 0.22-0.06 0.12-0.06 0.26c0 1.26 1.02 0.4 16 0.76 14.98 0.36 17.3 2.94 18.12 3.14q-0.07 1.01 0.1 2c-0.12 2.94-0.38 7.6-0.8 10.52-1.66 11.64 0.92 7.48-14.14 7.06-18-0.46-20.46 0.28-20.5-3.36 0-0.16 0.86-12 0.88-12 0.02 0 3.68 0.32 6.16 0.28 5.64 0.46 2.76 0.14 13.1 0.36 9.84 0.2 13.54 0.6 13.88 0.56q0.29-0.01 0.51-0.2 0.21-0.19 0.25-0.48c0-1.06-1.22-0.78-14.58-2-4-0.12-19.06 0.34-19.22 0.4 0-1.18 0.32-4 0.56-5.14q0-0.22-0.14-0.39-0.14-0.16-0.35-0.2-0.21-0.04-0.4 0.06-0.19 0.11-0.27 0.31c-0.54 2.44-1.46 13.12-1.7 15.7-0.44 1.67-0.44 3.43 0 5.1 1.16 2.66 5.4 2.42 7.62 2.68 6.54 0.72 13.58 0.34 20 1.12 2.72 0.32 7.64 1.6 8.94-0.86 1.3-2.46 1.26-6 1.6-8.54q0.64-5.36 0.68-10.76c0.06-1.84 0.56-3.46-1.12-4.2z"/>
			<path fill-rule="evenodd" class="s1" d="m3.56 22.52c-0.96-4-1.06-2.96 0.24-3.22q16.3-3.96 32-9.86c1.3 3.36 2.62 6.94 2.8 7.62q0.08 0.23 0.28 0.34 0.21 0.12 0.44 0.06 0.23-0.06 0.36-0.26 0.12-0.21 0.08-0.44-2.02-7.31-4.76-14.38-0.23-0.46-0.68-0.7c-5.22-2.22-32.74 8.42-33.72 9.46q-0.13 0.08-0.21 0.21-0.08 0.14-0.09 0.29-0.02 0.15 0.04 0.3 0.05 0.14 0.17 0.24 0.11 0.11 0.26 0.15 0.15 0.04 0.3 0.02 0.15-0.03 0.28-0.12 0.12-0.09 0.19-0.23c0.94-0.9 27.68-9.12 31.64-8.58 0.4 0.86 0-0.72 2 4.64-4 1.14-13.6 3.72-20.5 6-5.74 2.04-10.58 3.82-11.18 3.94q-0.53 0.11-1.04 0.3c-0.58-2.08-1.12-3.94-1.28-4.84q-0.06-0.21-0.24-0.34-0.18-0.13-0.4-0.11-0.22 0.03-0.38 0.19-0.15 0.16-0.16 0.38c0.24 6.1 3.24 18.52 4.82 20.22q0.2 0.16 0.45 0.16 0.25-0.01 0.44-0.18 0.18-0.17 0.22-0.42 0.03-0.25-0.11-0.46c-1.1-1.32-0.48-2.76-2.26-10.38z"/>
			<path fill-rule="evenodd" class="s1" d="m34.1 13.4q-3.53 0.57-6.94 1.68c-1.58 0.6-2.54 1.12-2.78 1.2q-0.64 0.19-1.24 0.5c-0.7 0.52-0.24 1.34 0.38 1.18q3.58-0.46 7-1.62c1.24-0.46 2.54-1.06 4-1.66q0.23-0.11 0.33-0.35 0.09-0.23 0.02-0.47-0.08-0.24-0.3-0.38-0.22-0.12-0.47-0.08z"/>
			<path fill-rule="evenodd" class="s0" d="m24.6 33.12q-0.77 0.19-1.4 0.67-0.63 0.47-1.02 1.15-0.4 0.68-0.5 1.46c-0.34 2 1.02 2.62 2.78 2.62 1.02 0.15 2.07-0.08 2.94-0.64 1.26-1.28 1.6-3.62 0.28-4.36q-0.2-0.15-0.25-0.4-0.05-0.24 0.07-0.46 0.12-0.22 0.35-0.31 0.23-0.09 0.47-0.01c2.36 1.2 2.28 4.68 0.52 6.84-0.9 0.76-1.97 1.27-3.12 1.5-1.16 0.22-2.35 0.15-3.46-0.22-0.82-0.2-1.54-0.71-2-1.42 0.06 1.14-2.42 0.96-3.5 0.64q-0.92-0.21-1.66-0.8-0.74-0.59-1.14-1.45-0.4-0.85-0.4-1.8 0.02-0.94 0.44-1.79c0.42-0.86 1.03-1.61 1.79-2.18 0.76-0.57 1.65-0.96 2.59-1.12 0.72-0.08 1.44 0.02 2.11 0.29 0.67 0.27 1.26 0.7 1.73 1.25q0.92-0.64 2.03-0.82 1.11-0.17 2.19 0.16 0.23 0.06 0.36 0.27 0.12 0.21 0.06 0.45-0.07 0.23-0.27 0.36-0.21 0.12-0.45 0.06-0.78-0.12-1.54 0.06zm-4.6 5.9c-0.44-0.96-0.56-2.04-0.34-3.08 0.22-1.03 0.78-1.97 1.58-2.66-2.54-2.24-6.28 2-5.24 4 0.34 0.62 0.87 1.13 1.5 1.45 0.64 0.31 1.36 0.43 2.06 0.33q0.23-0.09 0.46 0z"/>
		</g>
	</g>
</svg>