<svg version="1.2" xmlns="http://www.w3.org/2000/svg" viewBox="0 0 48 49" width="48" height="49">
	<defs>
		<clipPath clipPathUnits="userSpaceOnUse" id="cp1">
			<path d="m0 0.29h48v48h-48z"/>
		</clipPath>
	</defs>
	<style>
		.s0 { fill: #022444 } 
		.s1 { fill: #8d1813 } 
	</style>
	<g id="Clip-Path" clip-path="url(#cp1)">
		<g>
			<path class="s0" d="m26.6 9.65c-0.3 0.53-0.4 1.15-0.28 1.76q0.09 0.51 0.39 0.93 0.3 0.43 0.75 0.69c0.69 0.41 1.48 0.62 2.28 0.62q1.87-0.1 3.74 0 0.39 0 0.73 0.17 0.35 0.16 0.59 0.47 0.16 0.27 0.16 0.6 0 0.32-0.16 0.6c-0.28 0.5-0.72 0.9-1.24 1.14-0.91 0.42-1.92 0.6-2.92 0.52q-1.57-0.14-2.98-0.86-0.25-0.14-0.51-0.06-0.27 0.08-0.41 0.32-0.13 0.25-0.06 0.52 0.08 0.27 0.32 0.42c1.07 0.64 2.26 1.08 3.5 1.28h0.26q0 0.44 0 0.92c0 0.32 0.2 1.04 0.28 1.58q0.01 0.13 0.07 0.25 0.06 0.12 0.16 0.21 0.1 0.09 0.23 0.14 0.12 0.04 0.26 0.04 0.28-0.03 0.47-0.24 0.18-0.22 0.17-0.5 0-0.64 0-1.3c0-0.44-0.12-0.72-0.18-1.08q1.1-0.09 2.12-0.5 0.87-0.33 1.54-0.96 0.67-0.64 1.04-1.48 0.26-0.67 0.21-1.37-0.05-0.71-0.39-1.33-0.35-0.64-0.92-1.08-0.58-0.43-1.28-0.6-2.4-0.3-4.8 0-0.52 0.01-1.02-0.14c-0.16 0-0.36-0.12-0.4-0.3q-0.04-0.15-0.01-0.3 0.03-0.14 0.11-0.26 0.28-0.45 0.7-0.76c0.74-0.54 1.61-0.87 2.51-0.97 0.91-0.1 1.83 0.03 2.67 0.39q0.11 0.06 0.23 0.07 0.12 0.02 0.24-0.02 0.12-0.03 0.21-0.11 0.1-0.07 0.15-0.18 0.06-0.11 0.07-0.23 0.01-0.13-0.03-0.24-0.04-0.12-0.12-0.21-0.08-0.09-0.19-0.14c-0.81-0.45-1.7-0.72-2.62-0.78q0.03-0.23 0-0.46-0.06-0.68-0.24-1.32-0.03-0.29-0.24-0.48-0.22-0.18-0.5-0.16-0.14 0-0.26 0.06-0.12 0.06-0.21 0.16-0.09 0.1-0.13 0.23-0.05 0.13-0.04 0.27-0.04 0.62 0 1.24-0.02 0.21 0 0.42-1.39 0.19-2.6 0.9-0.88 0.58-1.42 1.5z"/>
			<path class="s1" d="m47.3 10.67c0-1.68 0-5.78 0-7.54-0.01-0.58-0.21-1.14-0.58-1.58-1.26-0.53-2.61-0.82-3.98-0.86-2.42-0.24-5.64-0.4-8-0.4-0.74 0-8.5 0-13 0.34-1.29-0.01-2.56 0.26-3.74 0.78q-0.27 0.25-0.36 0.62-0.28 1.26-0.3 2.56c-0.2 3.48-0.14 9.32-0.12 10.7q0 0.14 0.07 0.27 0.06 0.14 0.17 0.23 0.11 0.1 0.25 0.14 0.15 0.04 0.29 0.02 0.27-0.01 0.47-0.2 0.2-0.19 0.21-0.46c0-1.06 0-4.74 0.18-8 0-1.68 0.18-3.2 0.32-4.16q0.05-0.3 0.12-0.58c0.18 0 0.48 0 0.7 0 1.16-0.26 3.06-0.26 5.08-0.26 4.2 0 9 0 9.7 0 1.9 0 4.46 0.22 6.62 0.42 1.4 0.14 3.5 0.48 3.54 0.5 0.04 0.02 0.1 5.76 0 7.38 0 0.98 0.16 4.46 0.16 7.48 0 1.54-0.16 4.36-0.18 4.42q-0.71-0.06-1.42 0c-0.88 0-1.78 0-2.12 0-2-0.1-4.3-0.3-5.34-0.24-0.44-0.02-0.86 0.14-1.18 0.44-0.48 0.56-0.98 1.86-1.84 3.3q-0.59 0.96-1.34 1.8-0.61 0.66-1.43 1.03-0.83 0.36-1.73 0.37c-0.16-1.1 0-4 0-5.38q0.01-0.43-0.16-0.82-0.06-0.16-0.2-0.27-0.13-0.11-0.3-0.13-0.64-0.06-1.28 0-0.65-0.04-1.3 0-0.12 0.01-0.22 0.07-0.1 0.06-0.17 0.16-0.07 0.1-0.09 0.21-0.03 0.12 0 0.24 0.02 0.11 0.07 0.21 0.06 0.1 0.16 0.17 0.09 0.07 0.2 0.1 0.11 0.03 0.23 0.02 0.56-0.05 1.12 0h0.66q-0.17 3.1 0 6.2 0.09 0.19 0.27 0.33 0.17 0.13 0.39 0.17 1 0.22 2 0c1.08-0.27 2.06-0.83 2.84-1.62q0.92-0.91 1.62-2c0.74-1.14 1.18-2.22 1.6-2.8 1 0 3.14 0.22 5.1 0.4q1.65 0.12 3.3 0c0.72-0.01 1.42-0.25 2-0.68 0.52-0.96 0.78-2.02 0.76-3.1 0.4-3.24 0.16-8.72 0.18-10z"/>
			<path class="s0" d="m24 39.91c-1-1.64-2.37-3.01-4-4q-1.18-0.64-2.48-0.98c1.91-1.25 3.42-3.02 4.34-5.1 0.55-1.05 0.86-2.21 0.9-3.4 0.05-1.18-0.18-2.36-0.66-3.44-1.04-2-9.6-7.78-15.72 0-2.76 3.52-3.36 8.42 0.68 11.34q1.22 0.85 2.62 1.36c-2.61 1.26-4.83 3.2-6.44 5.62q-0.74 1.17-1.24 2.46-0.8 1.83-1.32 3.76-0.04 0.1-0.04 0.22 0 0.12 0.05 0.23 0.05 0.1 0.13 0.19 0.09 0.08 0.2 0.12 0.24 0.06 0.45-0.05 0.22-0.12 0.29-0.35 0.53-1.5 1.22-2.92 0.67-1.43 1.62-2.68c1.73-2.21 4.04-3.89 6.68-4.84 1.99-0.8 4.19-0.89 6.24-0.26 2.05 0.62 3.83 1.93 5.04 3.7 1.47 2.04 2.59 4.31 3.32 6.72q0.02 0.14 0.1 0.26 0.08 0.13 0.2 0.21 0.12 0.08 0.27 0.1 0.14 0.02 0.28-0.02 0.15-0.04 0.26-0.13 0.11-0.09 0.17-0.22 0.07-0.14 0.07-0.28 0.01-0.15-0.05-0.28c-0.67-2.6-1.74-5.08-3.18-7.34zm-16.2-15.78c5.14-7.26 12.44-1.1 12.7 0q0.41 1.24 0.32 2.55-0.1 1.31-0.7 2.49c-1.04 2.19-2.91 3.88-5.2 4.7-1.12 0.32-2.3 0.38-3.45 0.16-1.14-0.21-2.22-0.69-3.15-1.4-3.04-2.14-2.32-5.8-0.46-8.5z"/>
		</g>
	</g>
</svg>