<svg version="1.2" xmlns="http://www.w3.org/2000/svg" viewBox="0 0 48 48" width="48" height="48">
	<defs>
		<clipPath clipPathUnits="userSpaceOnUse" id="cp1">
			<path d="m0 0h48v48h-48z"/>
		</clipPath>
	</defs>
	<style>
		.s0 { fill: #022444 } 
		.s1 { fill: #8d1813 } 
	</style>
	<g id="Clip-Path" clip-path="url(#cp1)">
		<g>
			<path fill-rule="evenodd" class="s0" d="m47.88 43.86q-0.04 0.34-0.23 0.63-0.19 0.28-0.49 0.45c-1.66 0.88-42.42 1.42-44.84 0.62-0.4-0.12-1.38-0.22-1.8-0.76-0.44-0.86-0.62-1.84-0.52-2.8-0.12-2.52 0.26-4.96 0.44-13.28q0.17-2.87 0-5.74c0.2-0.98 1.24-0.98 1.44-0.46 0 7.42 0 5.48 0 7.72 0.32-0.98 1.46 0.14 3.86-1.6 0.82-0.63 1.49-1.43 1.96-2.35 0.47-0.92 0.73-1.94 0.76-2.97q-0.03-0.26 0.1-0.48 0.14-0.21 0.38-0.3c-2.56 0-4.44 0-5.12 0q-0.31 0-0.54-0.22-0.22-0.23-0.22-0.54 0-0.31 0.22-0.54 0.23-0.22 0.54-0.22c4.2 0.14 40.64-1.26 42-0.62q0.39 0.28 0.65 0.7 0.24 0.42 0.31 0.9c0.93 7.25 1.3 14.56 1.1 21.86zm-40.2 0.02c-0.64-1.87-1.8-3.52-3.34-4.76-1.08-0.7-0.2-0.62-2.62-1.68q-0.13 3.01 0.28 6c1.22 0.3 0.86 0.4 5.68 0.44zm36.8-21.36c-2.36 0-4.64 0-7.4 0 0.1 1.59 0.77 3.09 1.9 4.22 1.13 1.13 2.63 1.8 4.22 1.9q0.26 0 0.46 0.16 0.19 0.17 0.23 0.43 0.03 0.26-0.11 0.47-0.15 0.21-0.4 0.28c-5.3 1.48-8.6-2.74-7.84-7.46-8 0-19.2 0.14-26 0.14q0.19 0.07 0.32 0.23 0.12 0.17 0.14 0.37c1.06 4.74-2 9.28-7.54 7.96q-0.2-0.02-0.35-0.15-0.15-0.12-0.21-0.31c0 0-0.14 4.54-0.14 5.04 1.01-0.03 2 0.2 2.9 0.66 1.18 0.56 2.24 1.36 3.08 2.36 0.96 1.22 0.98 1.98 1.62 4.94 0.18 0 27.58-0.64 27.58-0.9 0.52-2.78 0.46-3.72 1.46-5.08 0.69-0.94 1.57-1.72 2.59-2.28 1.02-0.56 2.15-0.9 3.31-0.98 0 0 0.7 0.68-0.32 1.46-4.72 3.68-4.22 4.54-5.4 6.94 1.56-0.08 5.26-0.22 6.84-0.34q0.17-10.06-0.94-20.06z"/>
			<path fill-rule="evenodd" class="s1" d="m19.72 17.56c5.08 0 26.66-0.62 26.8-0.8q0.16-0.23 0.12-0.5-0.04-0.27-0.26-0.44c-2.2-1.82-41.06-0.56-43.56 0.32q-0.14 0.04-0.26 0.14-0.12 0.09-0.19 0.22-0.07 0.14-0.08 0.29-0.02 0.15 0.03 0.29c0.2 0.68-0.78 0.54 17.4 0.48z"/>
			<path fill-rule="evenodd" class="s1" d="m8.5 11.58c3.84-0.18 12 0 22.62-0.36 12-0.46 12.84 0.78 12-0.64-1.48-3.1-35.56-1.28-36.96-0.16q-0.24 0.19-0.29 0.5-0.03 0.31 0.15 0.56c0.52 0.52 1.98 0.14 2.48 0.1z"/>
			<path fill-rule="evenodd" class="s1" d="m18.94 4.72c2.74 0 5.48 0 8.72 0 11.18-0.56 9.7-0.24 10-0.42q0.21-0.18 0.24-0.45 0.03-0.27-0.14-0.49c-0.7-0.94-8-1.08-10-1.12q-8.31-0.05-16.54 1.1-0.27 0.14-0.37 0.43-0.1 0.29 0.03 0.57c0.08 0.34-0.46 0.28 8.06 0.38z"/>
			<path fill-rule="evenodd" class="s0" d="m26.42 32.74c-1.46-0.78-4.32-1.22-5.08-2-0.1 0-0.3-0.52-0.48-0.52 0.44-1.38 4.4-2 4.64-1.28q0.04 0.13 0.12 0.23 0.09 0.1 0.2 0.17 0.12 0.06 0.25 0.07 0.13 0.02 0.26-0.02 0.13-0.04 0.23-0.12 0.1-0.09 0.17-0.2 0.06-0.12 0.07-0.25 0.02-0.13-0.02-0.26c-0.24-0.98-1.54-1.38-2.54-1.48 0.17-0.53 0.15-1.1-0.06-1.61-0.21-0.51-0.6-0.92-1.1-1.17q-0.38 0.2-0.64 0.54-0.26 0.34-0.36 0.75-0.1 0.42-0.02 0.84 0.08 0.42 0.32 0.77c-2 0.4-3.84 1.48-3.82 3.46 0.14 0.66 0.48 1.26 0.98 1.72 1.42 1.7 4 1.74 5.68 2.6 1.04 0.52 1.64 0 0 0.74-1.34 0.6-4.7 1.42-5.02 0q-0.02-0.15-0.11-0.28-0.08-0.12-0.2-0.21-0.13-0.08-0.27-0.11-0.15-0.03-0.3 0c-1.2 0.24-0.72 2.98 2.7 3.14-0.38 0.76 0.36 2.8 1.12 2.8 0.76 0 1.58-2 1-2.92q0.96-0.15 1.88-0.44c1.24-0.4 2.2-0.84 2.5-2 0.3-1.16-0.9-2.28-2.1-2.96z"/>
		</g>
	</g>
</svg>