<svg version="1.2" xmlns="http://www.w3.org/2000/svg" viewBox="0 0 48 49" width="48" height="49">
	<style>
		.s0 { fill: #8d1813 } 
		.s1 { fill: #022444 } 
	</style>
	<path fill-rule="evenodd" class="s0" d="m22.32 19.67c0.1-0.82 0.26-4.12 0.24-4.94-0.02-0.82 0-1.6-0.12-2.4-0.1-1.32-0.18-1.38-0.32-2.68-0.34-1.88-1.36-1.5-1.74 0.5 0 0.56-0.18 1.66-0.2 2.22-0.02 0.56 0 1.64 0 2.44 0 0.8 0 1.62 0.16 2.42 0.12 1.38 0.38 1.46 0.58 2.8 0.2 1.34 1.24 1.26 1.4-0.36z"/>
	<path fill-rule="evenodd" class="s1" d="m29.35 23.38c0.11 0.67 0.03 1.37-0.25 1.99-0.5 1.15-1.23 2.18-2.16 3.02q-1.96 1.75-4.24 3.06-0.25 0.15-0.53 0.09-0.29-0.07-0.45-0.31v-0.14q-0.13 0.16-0.33 0.21-0.2 0.05-0.39-0.03-2-0.71-3.68-2c-1.18-0.9-2.1-2.1-2.66-3.48-0.35-0.89-0.41-1.87-0.18-2.8q0.15-0.56 0.5-1.03 0.36-0.46 0.86-0.75c0.72-0.41 1.55-0.58 2.38-0.5 1.2 0.28 2.33 0.8 3.32 1.54-0.02-0.16 0.42-0.58 0.94-0.92q0.38-0.38 0.84-0.66 0.76-0.48 1.66-0.56 0.99-0.04 1.9 0.35 0.9 0.39 1.56 1.13c0.47 0.49 0.79 1.12 0.91 1.79zm-2 0.41q-0.12-0.38-0.41-0.66-0.32-0.35-0.77-0.52-0.45-0.17-0.93-0.12-0.46 0.05-0.8 0.36-0.46 0.35-0.76 0.84c-0.14 0.2-0.48 1.04-0.72 1.36q-0.28 0.4-0.74 0.54-0.36 0.06-0.72-0.05-0.35-0.12-0.6-0.39c-0.3-0.3-1.1-1.22-1.1-1.22q-0.66-0.55-1.48-0.82c-0.45-0.16-0.95-0.16-1.4 0q-0.2 0.11-0.33 0.3-0.12 0.19-0.15 0.42-0.17 0.66 0 1.32c0.36 1.13 1.01 2.14 1.88 2.94q1.42 1.25 3.16 2 0.11 0.04 0.2 0.13 0.09 0.08 0.14 0.19 0.07-0.11 0.18-0.2 2.06-1.34 3.78-3.1c0.7-0.73 1.24-1.59 1.58-2.54q0.1-0.39-0.01-0.78z"/>
	<path fill-rule="evenodd" class="s1" d="m47.79 42.88q0.21 0.2 0.21 0.49 0 0.29-0.21 0.5-0.2 0.2-0.49 0.2l-29 0.88c-3.52 0.02-6.82 0-10.6 0.18-3.78 0.18-6.96 0.68-6.96 0.68q-0.12 0.03-0.24 0-0.12-0.02-0.22-0.09-0.1-0.06-0.17-0.17-0.07-0.1-0.09-0.22-0.03-0.12-0.01-0.24 0.02-0.12 0.09-0.23 0.07-0.1 0.17-0.17 0.11-0.06 0.23-0.08c0.86-0.22 1.9-0.4 2.86-0.56-0.32-1.92-0.62-3.78-0.84-5.78-0.3-2.4-0.52-4.82-0.72-7.22-0.37-3.67-0.3-7.38 0.2-11.04 0.34-2.51 1.12-4.93 2.32-7.16 2.21-3.7 5.63-6.52 9.68-8 4-1.51 8.34-1.93 12.56-1.2 2.83 0.51 5.51 1.65 7.84 3.34 2.34 1.67 4.26 3.86 5.6 6.4 1.75 3.68 2.88 7.63 3.34 11.68q0.96 8.73 0.66 17.5l3.3 0.1q0.29 0.01 0.49 0.21zm-24.95-37.11c0.59 2.25 1.58 4.37 2.9 6.28 1.57 2.19 3.62 3.99 6 5.26q1.16 0.69 2.44 1.14 1.23 0.43 2.54 0.52h1.86c0.24 0 0.68-0.14 0.88-0.14q0.29 0 0.54 0.14-0.79-2.39-2-4.6c-1.2-2.2-2.9-4.1-4.96-5.54-2.07-1.46-4.44-2.43-6.94-2.86q-1.62-0.23-3.26-0.2zm-18.98 15.06q0.26-0.13 0.56-0.16c0.18-0.02 1.8-0.32 2.4-0.48q1.21-0.38 2.36-0.94 1.15-0.5 2.18-1.22c2.08-1.45 3.9-3.25 5.38-5.32 1.55-2.09 2.74-4.42 3.52-6.9q-2.76 0.29-5.36 1.24c-3.57 1.24-6.62 3.66-8.64 6.86-1.14 1.99-1.9 4.16-2.26 6.42 0 0.24 0 0.34-0.14 0.5zm5.56 22.5q-0.37-4.03-1.16-8-0.56-2.59-1.5-5.08l-2.56-5.46c-0.18-0.4-0.46-0.9-0.66-1.4q-0.32 3.78-0.1 7.56 0.17 3.58 0.5 7.18 0.25 2.88 0.68 5.72l2.96-0.4zm25.92-11.12q-0.01-3.3 0.6-6.54 0.21-1.04 0.66-2c0.36-0.84 0.82-1.6 1.2-2.4h-1.18q-1.66-0.08-3.2-0.68-1.49-0.55-2.84-1.4c-2.49-1.6-4.59-3.73-6.16-6.24-1.25-1.94-2.22-4.05-2.88-6.26q-1.39 3.64-3.36 7c-1.48 2.34-3.34 4.42-5.5 6.14q-1.17 0.88-2.48 1.54-1.32 0.58-2.7 1l-1.66 0.46c0.16 0.34 0.34 0.66 0.46 0.94 0.54 1.4 1.18 2.68 1.72 4q0.37 0.88 0.68 1.78 0.86 2.68 1.3 5.46 0.62 4.02 0.82 8.08 3.68-0.29 7.4-0.52c3.78 0 7.78-0.22 11.72-0.16q3.17 0 6.34 0-0.13-0.09-0.2-0.23-0.08-0.13-0.08-0.29c-0.34-3.2-0.66-6.4-0.66-9.68zm7.26 10.36q0.04-8.64-1.1-17.2-0.38-2.34-1.02-4.62c-0.52 1.52-1.48 2.88-2.12 4.42q-0.22 0.52-0.36 1.06-0.65 3.03-0.7 6.12c-0.16 3.14 0 6.3 0.1 9.48q0 0.18-0.08 0.34-0.08 0.15-0.22 0.26z"/>
</svg>