<svg version="1.2" xmlns="http://www.w3.org/2000/svg" viewBox="0 0 48 49" width="48" height="49">
	<defs>
		<clipPath clipPathUnits="userSpaceOnUse" id="cp1">
			<path d="m0 0.29h48v48h-48z"/>
		</clipPath>
	</defs>
	<style>
		.s0 { fill: #8d1813 } 
		.s1 { fill: #022444 } 
	</style>
	<g id="Clip-Path" clip-path="url(#cp1)">
		<g>
			<path fill-rule="evenodd" class="s0" d="m23.78 27.27q-0.01-0.31-0.22-0.52-0.22-0.21-0.52-0.22c-1.3-0.14-2.7-0.48-4.18-0.62q-1.47-0.15-2.94 0c-1.72 0.15-3.36 0.75-4.78 1.74q-0.11 0.06-0.2 0.15-0.08 0.1-0.12 0.22-0.03 0.13-0.02 0.25 0.01 0.13 0.07 0.25 0.13 0.23 0.38 0.31 0.12 0.04 0.25 0.03 0.13-0.02 0.24-0.07 1.02-0.41 2.12-0.5 0.87-0.05 1.74 0h1.78c2 0 4-0.14 5.66-0.28q0.15 0 0.28-0.06 0.14-0.06 0.24-0.16 0.11-0.11 0.16-0.24 0.06-0.14 0.06-0.28z"/>
			<path fill-rule="evenodd" class="s0" d="m21.8 32.29q-0.66-0.27-1.36-0.36c-0.96-0.14-2-0.1-2.88-0.18-0.88-0.08-1.74-0.12-2.68-0.12q-1.37-0.02-2.72 0.18c-1.89 0.23-3.71 0.86-5.34 1.84q-0.23 0.12-0.32 0.37-0.08 0.25 0.04 0.49 0.06 0.11 0.15 0.2 0.1 0.08 0.22 0.13 0.12 0.04 0.25 0.03 0.12-0.01 0.24-0.06 1.43-0.45 2.92-0.52c1.16-0.12 2.38 0 3.58 0 1.2 0 2.56-0.16 3.7-0.24 0.72 0 1.56-0.24 2.38-0.28q0.68-0.11 1.36 0 0.14 0.04 0.28 0.03 0.15-0.01 0.28-0.07 0.13-0.07 0.22-0.18 0.1-0.11 0.14-0.24 0.08-0.15 0.09-0.31 0-0.17-0.07-0.32-0.06-0.15-0.19-0.25-0.13-0.11-0.29-0.14z"/>
			<path fill-rule="evenodd" class="s1" d="m46.38 43.59q-3.2-0.07-6.38 0.3c-1.07 0.09-2.1 0.44-3 1.02-1.14 0.77-2.49 1.16-3.86 1.12-0.12 0-6.72 0-6.18-1.7 0.12-0.4 0.54-0.6 0.72-0.74 0.18-0.14 0.12-0.14 0.18-0.22q0.35 0.13 0.72 0.2 0.29 0.04 0.58 0 0.31-0.04 0.6-0.12c2-0.58 2-1.08 2-1.46 0-0.38-0.2-0.64-2.2-0.84q-0.47-0.08-0.94 0-0.44 0.14-0.82 0.4-0.29-0.29-0.68-0.38-0.62-0.17-1.14-0.54c-0.18-0.12-0.38-0.26-0.38-0.48 0-1.12 1.06-1.68 1.54-2l0.46-0.3q0.17 0.09 0.36 0.16 0.28 0.04 0.56 0 0.29 0.02 0.58 0c2.24-0.44 2-1.04 2-1.24 0-0.2-0.12-0.66-2-1.08q-0.44-0.07-0.88 0-0.52 0.09-0.98 0.34-0.55-0.2-1.04-0.52-0.16-0.11-0.24-0.28-0.09-0.17-0.08-0.36c0-0.88 0.6-1.42 1.44-1.78 1.39-0.53 2.88-0.76 4.36-0.68q0.23-0.02 0.46 0 0.26 0 0.47-0.17 0.2-0.17 0.23-0.43 0-0.19-0.1-0.34-0.09-0.15-0.26-0.22-0.32-0.98-0.36-2-0.07-1.12 0.12-2.22c0-0.58 0.36-0.94 0.74-0.94 0.38 0 0.86 0.4 1.22 0.98q1.04 1.6 2.3 3.04c0.74 0.86 1.62 1.78 2.56 2.74 0.89 0.96 2.07 1.6 3.36 1.82 1.21 0.14 2.43 0.01 3.58-0.38q0.26-0.06 0.41-0.28 0.14-0.22 0.09-0.48-0.06-0.26-0.28-0.41-0.22-0.14-0.48-0.09c-0.97 0.22-1.97 0.22-2.94 0-0.87-0.28-1.62-0.84-2.14-1.58l-4.42-5.72c-0.35-0.58-0.84-1.05-1.42-1.38-0.59-0.33-1.25-0.49-1.92-0.48-0.73 0.06-1.4 0.41-1.88 0.96-0.48 0.55-0.73 1.26-0.7 2q-0.06 1.31 0.14 2.62 0.12 0.82 0.4 1.6c-1.4-0.09-2.8 0.08-4.14 0.5-0.74 0.19-1.41 0.61-1.9 1.2-0.49 0.59-0.78 1.33-0.82 2.1-0.05 0.65 0.16 1.31 0.58 1.82q0.18 0.2 0.38 0.38-0.8 0.54-1.27 1.38-0.46 0.85-0.49 1.82 0.1 0.82 0.56 1.51 0.47 0.69 1.2 1.09c-0.3 0.43-0.48 0.94-0.5 1.48-0.03 0.74 0.2 1.47 0.65 2.07 0.45 0.59 1.09 1.01 1.81 1.19q2.49 0.74 5.08 0.7c2.27 0.1 4.5-0.6 6.28-2 0.88-0.5 1.85-0.79 2.86-0.84q2.6-0.38 5.22-0.46 0.3-0.02 0.51-0.23 0.21-0.22 0.21-0.51-0.03-0.28-0.22-0.47-0.21-0.18-0.48-0.19z"/>
			<path fill-rule="evenodd" class="s1" d="m27.36 12.91l-0.12 2c0 0.04 0 0.48 0 0.66q-0.03 0.26-0.17 0.5-0.13 0.23-0.35 0.4-0.35 0.22-0.76 0.32-0.46 0.09-0.92 0.1h-0.88l-1.2-0.18-1.16-0.2 0.3 2.72c0 0.24 0 0.86 0 1.36q-0.04 0.44-0.18 0.86-0.29 0.34-0.69 0.53-0.4 0.19-0.85 0.19c-1.12 0.04-3.84-0.12-4.58-0.12q-0.48 0.04-0.96 0-0.28-0.07-0.52-0.22-0.53-0.44-0.78-1.08-0.28-0.99-0.2-2l0.2-1.66-0.92 0.16q-0.75 0.07-1.5 0-0.57-0.08-1.12-0.28-0.5-0.23-0.8-0.68-0.17-0.22-0.26-0.48c0-0.2 0-0.48 0-0.62l-0.22-2.22q-0.01-0.96 0.26-1.88c0.17-0.58 0.53-1.08 1.02-1.42q0.37-0.22 0.8-0.22c0.34 0 0.72 0 0.96 0 0.64 0.12 1.26 0.12 1.9 0.12l0.56 0.1v-1.16c-0.04-0.44-0.22-1.14-0.22-1.76q-0.08-0.54 0-1.08 0.14-0.27 0.39-0.45 0.25-0.18 0.55-0.23 0.52-0.16 1.06-0.18h4.12q0.43-0.05 0.86 0 0.25 0.04 0.46 0.18 0.22 0.12 0.37 0.32 0.14 0.21 0.19 0.46 0.06 0.68 0 1.36l-0.24 3.16 3.02-0.5q0.6-0.15 1.22-0.2 0.3 0 0.56 0.15 0.27 0.15 0.42 0.41c0.26 0.38 0.39 0.83 0.38 1.3q0.04 0.73 0 1.46zm-2.36-1.02h-0.2c-0.94-0.06-1.88-0.22-2.8-0.22h-0.96q-0.26 0.03-0.48-0.12-0.21-0.16-0.26-0.42c0-0.12 0-0.3 0-0.3l-0.3-3.68h-4c0 0.52 0 1.14 0.04 1.6l-0.24 2q0 0.12-0.04 0.24-0.05 0.12-0.13 0.21-0.09 0.1-0.21 0.15-0.11 0.05-0.24 0.06-0.13 0.01-0.25-0.04-0.12-0.05-0.21-0.14-0.42-0.03-0.84 0c-3.38 0.36-2.38 0.06-2.56 1.9v1.86q0.01 0.2 0 0.4h0.26q0.51 0.17 1.04 0.2c1.28 0.1 2.48-0.66 2.66 0.62q0.06 0.2 0 0.4v2.3q0.04 0.4 0.12 0.8c0 0.08 0 0.22 0 0.22h4.6v-0.54l0.28-3.66q0-0.13 0.05-0.25 0.05-0.12 0.14-0.21 0.09-0.09 0.21-0.14 0.11-0.04 0.24-0.04h3.08l0.78-0.04v-2c0.02-0.22 0.2-0.76 0.22-1.16z"/>
			<path fill-rule="evenodd" class="s1" d="m18.78 39.75q-1.93 0.39-3.9 0.28c-2-0.1-4-0.48-6-0.72q-1.6-0.14-3.18-0.44-0.66-0.12-1.28-0.34c0-0.36-0.32-1.22-0.34-1.4q-0.24-1.63-0.32-3.22c-0.06-1.06-0.1-2.18-0.12-3.28-0.12-2.88-0.18-5.74-0.3-8.6-0.12-2.86-0.32-5.74-0.38-8.56 0-3.56 0-7.12 0.32-10.7l9.54-0.16c2.64 0 5.28 0.16 8 0.22q1.73 0 3.46 0c1.88 0 4.16-0.36 6.36-0.32q1.81-0.01 3.54 0.56c0 2.16-0.12 4.28-0.14 6.42 0 0.96 0 2 0 2.9 0 0.9 0 2 0.14 2.88 0.12 2.26 0.28 4.48 0.38 6.76q0.05 0.26 0.25 0.44 0.21 0.17 0.48 0.17 0.27 0 0.48-0.17 0.2-0.18 0.25-0.44c0.2-2.3 0.38-4.56 0.46-6.82 0-0.98 0-2 0-2.92 0-0.92 0-2-0.14-2.92-0.2-2.22-0.54-4.4-0.88-6.6q0.07-0.13 0.08-0.28 0-0.14-0.04-0.28-0.05-0.13-0.15-0.24-0.1-0.11-0.23-0.16c-1.4-0.63-2.91-1-4.44-1.08-2.22-0.22-4.54-0.12-6.46-0.18-2.66-0.04-5.3-0.26-7.96-0.26-1.14 0-2.26 0-3.46 0.12l-9.5 1.1q-0.09-0.02-0.18 0-0.15-0.15-0.36-0.2-0.14-0.03-0.28 0.01-0.14 0.03-0.25 0.12-0.11 0.1-0.17 0.23-0.06 0.13-0.06 0.28-1 7.13-1.08 14.34 0 3.6 0 7.2c0 2.4 0.12 4.8 0.2 7.2 0 1.38 0.12 2.74 0.26 4q0.13 1.38 0.4 2.74 0.14 1.01 0.44 2c0.08 0.34 0.29 0.65 0.58 0.86q1.17 0.52 2.44 0.7c1.2 0.18 2.5 0.26 3.4 0.3 2.16 0.14 4.18 0.42 6.22 0.44q2.16 0.02 4.26-0.5 0.15-0.04 0.27-0.13 0.13-0.09 0.2-0.23 0.08-0.13 0.1-0.28 0.02-0.16-0.03-0.3-0.03-0.15-0.12-0.27-0.08-0.11-0.21-0.19-0.12-0.08-0.26-0.1-0.15-0.02-0.29 0.02z"/>
		</g>
	</g>
</svg>