<svg version="1.2" xmlns="http://www.w3.org/2000/svg" viewBox="0 0 48 49" width="48" height="49">
	<defs>
		<clipPath clipPathUnits="userSpaceOnUse" id="cp1">
			<path d="m0 0.86h48v48h-48z"/>
		</clipPath>
	</defs>
	<style>
		.s0 { fill: #022444 } 
		.s1 { fill: #8d1813 } 
	</style>
	<g id="Clip-Path" clip-path="url(#cp1)">
		<g>
			<path class="s0" d="m27.12 39.14c-0.72-0.38-1.32-0.96-1.72-1.66q-0.78-1.06-1.2-2.3c-0.7-2.82 0.34-6.7-1.02-10.22-0.95-2.36-2.73-4.28-5-5.42-0.95-0.54-2-0.88-3.08-0.99-1.08-0.12-2.18-0.01-3.22 0.31-2.04 0.63-3.8 1.93-5 3.7q-0.92 1.35-1.46 2.9-0.61 1.5-0.82 3.12c-0.28 2.26 0.16 4.62-0.24 6.7q-0.14 0.97-0.66 1.81-0.52 0.83-1.34 1.39-0.38 0.26-0.78 0.48-0.4 0.17-0.82 0.26-0.17 0.03-0.31 0.13-0.13 0.1-0.21 0.25-0.07 0.14-0.07 0.31 0 0.16 0.07 0.31 0.55 0.84 1.32 1.5 0.56 0.53 1.32 0.72 0.12 0.02 0.23-0.01 0.12-0.02 0.22-0.09 0.1-0.07 0.16-0.17 0.07-0.1 0.09-0.21 0.02-0.12 0-0.24-0.03-0.11-0.1-0.21-0.06-0.1-0.16-0.17-0.1-0.06-0.22-0.08-0.53-0.22-0.9-0.66l-0.2-0.32h0.16q0.53-0.23 1.02-0.54 1.11-0.66 1.87-1.7 0.75-1.04 1.03-2.3 0.3-1.52 0.32-3.06c0.16 1.22 0.56 2.39 1.18 3.46 0.78 1.35 1.88 2.5 3.2 3.34-2.6 0.73-4.94 2.16-6.78 4.14q-0.68 0.79-1.2 1.7-0.74 1.29-1.26 2.7-0.09 0.23 0 0.46 0.09 0.23 0.32 0.34 0.24 0.09 0.47-0.01 0.23-0.1 0.33-0.33 0.48-1.04 1.1-2 0.63-0.89 1.44-1.62c1.79-1.64 3.97-2.78 6.34-3.3 2.29-0.62 4.72-0.52 6.96 0.28 1.41 0.53 2.66 1.41 3.64 2.56q1.56 1.8 2.48 4 0.11 0.25 0.36 0.37 0.26 0.12 0.52 0.03 0.13-0.05 0.23-0.14 0.1-0.1 0.15-0.22 0.06-0.12 0.06-0.26 0.01-0.14-0.04-0.26c-0.56-1.67-1.37-3.23-2.42-4.64-1.08-1.5-2.53-2.69-4.2-3.46-0.32-0.12-0.66-0.2-0.98-0.3q0.85-0.47 1.58-1.12c0.98-0.98 1.77-2.12 2.34-3.38q0.08-0.19 0.14-0.38c0 0.36 0.14 0.7 0.22 1.02q0.7 1.82 2 3.28 0.62 0.74 1.42 1.28-0.09 0.15-0.2 0.3-0.23 0.37-0.64 0.54-0.26 0.1-0.39 0.35-0.11 0.25-0.02 0.52 0.1 0.26 0.35 0.38 0.25 0.12 0.52 0.03 0.64-0.22 1.1-0.72 0.56-0.65 0.92-1.42 0.07-0.15 0.07-0.32 0-0.17-0.07-0.32-0.07-0.17-0.21-0.28-0.14-0.11-0.31-0.14zm-6.42-4.94q-0.85 1.52-2.18 2.66-0.78 0.62-1.72 0.96-0.97 0.34-2 0.4-0.73 0.03-1.44-0.14-0.71-0.2-1.36-0.52c-1.19-0.56-2.23-1.42-3-2.48-0.75-0.97-1.24-2.13-1.42-3.34 1.3 0.1 2.6 0.2 4 0.24q1.31 0 2.6 0c0.86 0 1.72 0 2.58-0.16 1.72-0.14 3.42-0.34 5.12-0.54-0.18 1.04-0.58 2.04-1.18 2.92zm-2.26-4.52q0.03-0.53 0-1.06-0.15-1.02-0.42-2-0.01-0.12-0.06-0.23-0.05-0.11-0.14-0.19-0.09-0.07-0.21-0.11-0.11-0.04-0.23-0.03-0.12 0-0.23 0.06-0.1 0.05-0.18 0.14-0.08 0.09-0.12 0.2-0.04 0.12-0.03 0.24-0.1 0.99-0.1 2 0.03 0.46 0.12 0.92h-2.84c-0.86 0-1.7 0-2.56 0.12-1.66 0.12-3.3 0.32-4.96 0.5 0-0.48 0-0.96 0.16-1.42q0.26-1.36 0.82-2.62 0.52-1.26 1.3-2.38c0.94-1.33 2.29-2.32 3.84-2.8q1.14-0.34 2.32-0.22 1.18 0.13 2.22 0.7c1.85 0.85 3.34 2.34 4.18 4.2q0.75 1.93 0.84 4z"/>
			<path class="s1" d="m47.78 11.46c0-1.72 0-5.9-0.1-7.7-0.01-0.59-0.23-1.15-0.6-1.6-1.27-0.54-2.62-0.85-4-0.9-2.46-0.24-5.74-0.4-8-0.4-0.92 0-8.74 0-13.32 0.36-1.29 0-2.57 0.26-3.76 0.78q-0.28 0.27-0.38 0.64-0.3 1.29-0.34 2.62c-0.2 3.6-0.12 9.6-0.1 10.92q0 0.13 0.05 0.26 0.05 0.13 0.14 0.22 0.1 0.1 0.23 0.15 0.12 0.05 0.26 0.05 0.28-0.01 0.48-0.2 0.2-0.2 0.2-0.48c0-1.08 0-4.84 0.2-8.12 0-1.7 0.18-3.28 0.34-4.26 0-0.22 0-0.46 0.1-0.58 0.1-0.12 0.48 0 0.72 0q2.59-0.32 5.2-0.36c4.28 0 9.18 0 9.9 0 2 0 4.56 0.22 6.76 0.44 1.44 0.14 2.7 0.3 3.5 0.46h0.12c0.16 1.74 0 5.8 0 7.46 0 1.02 0.14 4.56 0.14 7.64q0.07 2-0.16 4c-0.1 0.56-0.96 0.52-1.46 0.54q-1.09 0.05-2.18 0c-2.1-0.12-4.38-0.3-5.44-0.24-0.44-0.01-0.87 0.15-1.2 0.44-0.48 0.58-0.98 1.9-1.86 3.36q-0.52 1-1.22 1.9-0.63 0.69-1.49 1.07-0.85 0.37-1.79 0.37c-0.16-1.12 0-4.18 0-5.52q0-0.43-0.14-0.84-0.08-0.15-0.21-0.25-0.13-0.1-0.29-0.13-0.12-0.02-0.24 0-0.12 0.03-0.22 0.1-0.09 0.07-0.16 0.17-0.06 0.11-0.08 0.23c0 0 0 6.88 0.14 7.08q0.09 0.2 0.26 0.33 0.17 0.13 0.38 0.17 1.05 0.23 2.1 0c1.09-0.27 2.09-0.84 2.88-1.64q0.92-0.92 1.64-2c0.78-1.18 1.24-2.28 1.66-2.88h0.1c1.02 0 3.2 0.24 5.22 0.42q1.67 0.12 3.34 0c0.72 0 1.43-0.24 2-0.68 0.54-0.97 0.8-2.06 0.78-3.16 0.12-3.34-0.12-8.84-0.1-10.24z"/>
			<path class="s0" d="m27.22 9.64c-0.31 0.54-0.42 1.17-0.3 1.78q0.11 0.5 0.4 0.92 0.3 0.42 0.74 0.7c0.7 0.41 1.49 0.62 2.3 0.62q1.88-0.11 3.76 0 0.39-0.02 0.74 0.14 0.35 0.17 0.58 0.48 0.16 0.27 0.16 0.6 0 0.32-0.16 0.6c-0.29 0.5-0.73 0.9-1.26 1.14-0.91 0.43-1.92 0.61-2.92 0.52q-1.61-0.13-3.04-0.86-0.25-0.13-0.51-0.06-0.27 0.08-0.41 0.32-0.07 0.11-0.09 0.25-0.02 0.14 0.01 0.27 0.04 0.14 0.13 0.25 0.09 0.1 0.21 0.17c1.08 0.65 2.27 1.09 3.52 1.28h0.26q0 0.46 0 0.92c0 0.3 0.2 1.06 0.28 1.6q0.01 0.13 0.07 0.25 0.06 0.13 0.16 0.22 0.1 0.09 0.23 0.13 0.12 0.04 0.26 0.04 0.28-0.03 0.47-0.24 0.18-0.22 0.17-0.5 0.04-0.65 0-1.3-0.03-0.52-0.12-1.02 1.09-0.08 2.12-0.46 0.89-0.34 1.57-1 0.69-0.66 1.05-1.54 0.25-0.67 0.21-1.38-0.05-0.71-0.39-1.34-0.35-0.64-0.93-1.08-0.58-0.44-1.29-0.6-2.41-0.32-4.82 0-0.54 0.02-1.04-0.16c-0.16 0-0.34-0.12-0.4-0.3q-0.11-0.27 0-0.54 0.29-0.46 0.72-0.78c0.73-0.53 1.58-0.87 2.48-0.98 0.93-0.12 1.87 0.02 2.72 0.4q0.22 0.11 0.46 0.04 0.24-0.08 0.36-0.3 0.11-0.23 0.04-0.47-0.08-0.23-0.3-0.35c-0.81-0.45-1.72-0.71-2.64-0.76q0.01-0.24 0-0.48-0.06-0.63-0.2-1.24-0.05-0.25-0.24-0.42-0.2-0.16-0.45-0.17-0.26 0.01-0.45 0.17-0.19 0.17-0.24 0.42-0.04 0.62 0 1.24-0.03 0.22 0 0.44-1.4 0.17-2.62 0.9-0.85 0.6-1.36 1.52z"/>
		</g>
	</g>
</svg>