<svg version="1.2" xmlns="http://www.w3.org/2000/svg" viewBox="0 0 48 48" width="48" height="48">
	<defs>
		<clipPath clipPathUnits="userSpaceOnUse" id="cp1">
			<path d="m0 0h48v48h-48z"/>
		</clipPath>
	</defs>
	<style>
		.s0 { fill: #022444 } 
		.s1 { fill: #8d1813 } 
	</style>
	<g id="Clip-Path" clip-path="url(#cp1)">
		<g>
			<path fill-rule="evenodd" class="s0" d="m44.2 38.98c-0.38 0.7-0.94 1.62-1.3 2.32-0.16 0.3-0.16 0.7-0.3 0.7q0 2.51 0.42 4.98 0.09 0.27-0.02 0.54-0.13 0.26-0.4 0.36-0.27 0.1-0.54-0.02-0.26-0.13-0.36-0.4-0.61-2.62-0.74-5.3c-0.16-1.04 1.78-3.68 2-4.66 0.55-2.46 0.49-5.03-0.18-7.46-0.43-2.07-1.38-3.99-2.78-5.58-1.1-0.97-2.53-1.51-4-1.5-0.54 2.26 2.12 13.04-1.04 13.52-0.54 0.01-1.07-0.17-1.5-0.5-1.72-1.9-5.68-6.56-7.28-5.08-1.6 1.48 6.62 9.1 7.16 11.1 0.3 1.86 0.13 3.77-0.48 5.56q-0.14 0.21-0.39 0.27-0.25 0.05-0.47-0.09-0.21-0.14-0.27-0.39-0.05-0.25 0.09-0.47 0.34-1.03 0.3-2.12c0.1-2.02 0.04-2.24-0.64-3.06q-3.51-3.66-6.54-7.72c-2.2-3.72 0.5-5.86 3.14-5.2 2.34 1.05 4.4 2.65 6 4.66 0.52-4.76-1.4-10.1 0-12-0.18-2.06-1.16-5.38-1.16-5.88v-1.42c-1.5-0.27-2.88-0.97-4-2-1.28-1.49-2.11-3.32-2.4-5.26-2.11-0.14-4.22 0.16-6.2 0.88 0.22 1.52-0.1 3.07-0.9 4.38-2.36 4.36-5.28 3.72-5.28 4.8 0 4.9-0.22 11.54 0 17.66q0.16 0.04 0.28 0.16c0.2-0.12 0.78 0.4 0.92 0.4 3.52 1.82 5.84 2.98 5.7 6.84l4-0.1q0.29 0 0.49 0.21 0.21 0.2 0.21 0.49 0 0.29-0.21 0.5-0.2 0.2-0.49 0.2l-5.76 0.38c-1.9 0.12-4.54 0.74-5.8-0.96-0.95-1.85-1.41-3.92-1.32-6q-0.75-10.35-0.32-20.72-0.06-3.01-0.44-6c0.12-2.26 3.32-2.82 5.62-3.2 4.8-0.82 8.14-2.32 15.74-0.7q0.56 0.12 1.01 0.48 0.44 0.37 0.67 0.9c0.76 1.52 0.9 13.12 0.9 13.28 1.12-0.09 2.26 0.06 3.32 0.44 1.16 0.41 2.22 1.08 3.08 1.95 0.87 0.88 1.52 1.94 1.92 3.11 1.46 3.16 2.34 9.5 0.54 12.72zm-29.98-2.76c-0.17 1.83 0.08 3.67 0.74 5.38 0.58 0.84 3.26 0.4 4.26 0.4h0.28c-0.44-2-1.1-2-3.5-4zm4.72-28.08q-2.2 0.45-4.32 1.16c-1.1 0.44-1.06 0.12-0.68 3.46 0.18 1.86-0.26 2.7 1.3 0.86q1.48-1.51 2.76-3.2 0.73-1.03 0.94-2.28zm11.88 2.54q0.84 0.9 1.9 1.52 0.08-2.07-0.32-4.1-2.04-0.44-4-1.16c-1.82-0.46 2.16 3.5 2.4 3.74z"/>
			<path fill-rule="evenodd" class="s1" d="m48 8.16c0-1.44 0-6-1.16-6.86-1.16-0.86-7.36-1.3-14.42-1.3-7.72 0-16.58 0.4-20.92 0.88q-3.56 0.51-7.04 1.38c-1.02 0.24-2.5 0-3.54 1.1-1.04 1.1-0.78 3.34-0.76 4.8 0 1.08-0.48 4.38 0.3 5.2 0.89 0.65 1.96 0.98 3.06 0.94 2.14 0.41 4.35 0.37 6.48-0.12q0.25-0.07 0.38-0.29 0.12-0.22 0.06-0.47-0.07-0.25-0.29-0.38-0.22-0.12-0.47-0.06c-2.71 0.42-5.48 0.18-8.08-0.68 0.7-9.74-0.2-7.38 3.3-8 5.54-1.1 6.84-1.38 18.88-1.76 2.4 0 19.62-0.6 21.8 0.36q0.6 2.63 0.58 5.32c0 0.22-0.36 1.74 0 2-0.52 0.12-1.84 0-2.38 0.18q-2.78 0.37-5.58 0.44-0.29 0-0.5 0.21-0.2 0.2-0.2 0.49 0 0.29 0.2 0.5 0.21 0.2 0.5 0.2 2.91 0.05 5.8-0.24c0.66 0 1.6 0 2.34-0.1 2.22-0.38 1.54-1.9 1.66-3.74z"/>
			<path fill-rule="evenodd" class="s0" d="m21.12 21.22q0.28-0.07 0.44-0.31 0.16-0.25 0.1-0.53-0.07-0.28-0.31-0.44-0.25-0.16-0.53-0.1c-1.08 0.18-1.84 0.9-2 2.5-0.7-0.34-2.56 0.38-2.54 1.14 0.02 0.76 1.88 1.38 2.7 0.8q0.29 1.35 1.1 2.46c0.3 0.35 0.72 0.59 1.18 0.66 0.46 0.08 0.94-0.01 1.34-0.24 1.86-1 2-4.36 2.96-5.18 0.48-0.44 0.7-0.62 1.24 0 1 1.22 0.74 2.46 0.5 2.54q-0.24 0.08-0.37 0.31-0.12 0.22-0.05 0.47c0.26 0.86 1.82 0.5 2-1.48 0.49 0.16 1.02 0.13 1.48-0.08 0.47-0.22 0.83-0.6 1.02-1.08q-0.2-0.34-0.51-0.56-0.32-0.23-0.7-0.31-0.38-0.07-0.76 0.01-0.38 0.09-0.69 0.32c-0.72-2.38-2.52-3.06-3.74-2.54q-0.48 0.26-0.9 0.6c-1.54 1.12-1.52 3.08-2.28 4.34-0.76 1.26-0.12 1.06-0.68 0.1-0.56-0.96-1.12-3.08 0-3.4z"/>
		</g>
	</g>
</svg>