<svg version="1.2" xmlns="http://www.w3.org/2000/svg" viewBox="0 0 48 49" width="48" height="49">
	<defs>
		<clipPath clipPathUnits="userSpaceOnUse" id="cp1">
			<path d="m0 0.57h48v48h-48z"/>
		</clipPath>
	</defs>
	<style>
		.s0 { fill: #022444 } 
		.s1 { fill: #8d1813 } 
	</style>
	<g id="Clip-Path" clip-path="url(#cp1)">
		<g>
			<path fill-rule="evenodd" class="s0" d="m44.9 33.54c-0.35-2.38-1.5-4.59-3.25-6.25q-1.54-1.12-3.25-1.95-0.21-0.1-0.44-0.02-0.22 0.08-0.32 0.3-0.1 0.21-0.02 0.44 0.08 0.22 0.3 0.32 1.55 0.81 2.95 1.87c1.44 1.5 2.34 3.43 2.55 5.49 0.78 6.58-7.31 13.09-15.15 8.22-1.47-0.98-2.57-2.42-3.13-4.09-0.56-1.68-0.55-3.49 0.02-5.15 1.63-4.63 5.09-7.44 9.96-6.97q0.2-0.01 0.34-0.14 0.14-0.13 0.16-0.32 0.02-0.2-0.09-0.36-0.11-0.16-0.29-0.21c-5.46-0.74-9.52 2.38-11.55 7.39-0.82 2.04-0.91 4.29-0.26 6.38 0.64 2.09 1.99 3.89 3.81 5.11 9.21 5.78 18.85-2.06 17.66-10.06z"/>
			<path fill-rule="evenodd" class="s0" d="m34.08 28.12q-0.29 0.15-0.49 0.41-0.2 0.26-0.28 0.57-0.07 0.32-0.01 0.64 0.07 0.32 0.26 0.59c-2.53 0.5-3.25 2.11-2.74 3.25q0.24 0.42 0.58 0.76c1.07 1.28 3.1 1.33 4.32 1.98 0.8 0.39 1.25 0 0 0.55-1.02 0.46-3.57 1.09-3.81 0q-0.05-0.23-0.25-0.36-0.2-0.13-0.43-0.08-0.23 0.05-0.36 0.24-0.13 0.2-0.09 0.43c0.22 1.19 1.29 1.63 2.51 1.72-0.3 0.57 0.27 2.12 0.86 2.12 0.58 0 1.2-1.5 0.74-2.23 1-0.12 1.95-0.45 2.8-0.99 0.29-0.26 0.48-0.62 0.53-1.01 0.05-0.38-0.04-0.78-0.26-1.1-1-1.63-4.37-1.74-5.14-2.55-0.09-0.08-0.23-0.39-0.36-0.41 0.32-1.04 3.34-1.46 3.51-0.96q0.06 0.2 0.24 0.3 0.19 0.1 0.39 0.04c0.78-0.22 0.41-1.62-1.62-1.77 0.13-0.4 0.12-0.84-0.05-1.24-0.16-0.39-0.46-0.71-0.85-0.9z"/>
			<path fill-rule="evenodd" class="s0" d="m24.44 17.51q-0.26 1.01-0.84 1.88c-0.64 0.85-1.46 1.54-2.4 2.04-0.94 0.5-1.98 0.79-3.04 0.84-1.03 0.18-2.08 0.09-3.07-0.26-0.98-0.35-1.85-0.95-2.53-1.74-0.5-0.64-0.84-1.4-0.98-2.2q-0.14-0.62-0.18-1.26c0-0.54-1.46-1.38-1.76-0.44q-0.01 1.01 0.12 2c0.14 1.1 0.53 2.15 1.14 3.08q0.81 1.12 2 1.82-0.53 0.16-1.04 0.38-2.7 1.28-4.98 3.2-1.48 1.32-2.7 2.88c-2.1 2.59-3.4 5.73-3.76 9.04q-0.02 0.12 0.01 0.23 0.03 0.11 0.1 0.2 0.07 0.1 0.17 0.16 0.1 0.06 0.22 0.07 0.11 0.02 0.23-0.01 0.11-0.03 0.2-0.1 0.1-0.07 0.15-0.17 0.06-0.1 0.08-0.22c0.61-2.95 2.04-5.68 4.12-7.86q1.2-1.35 2.6-2.5l0.3-0.2q-0.3 1.46-0.42 2.94-0.09 1.68 0 3.36c0 1.66 0.24 3.3 0.24 4.98q-0.03 0.15 0 0.29 0.03 0.15 0.11 0.27 0.09 0.12 0.22 0.19 0.13 0.07 0.28 0.08 0.15 0.01 0.29-0.04 0.14-0.05 0.24-0.15 0.11-0.11 0.16-0.25 0.05-0.14 0.04-0.29 0.44-2.79 0.58-5.62 0-1.65 0-3.3c0-1.1 0-2.5 0-3.76 0.3-0.2 0.6-0.34 0.9-0.52 0.82 0.88 1.62 1.76 2.52 2.56 0.9 0.8 1.62 1.3 2.42 2 0 0 1.06 0.86 1.48 1.16h0.12c-0.14 0.6-0.28 1.18-0.36 1.78q-0.03 0.54 0 1.08-0.03 0.55 0 1.1c0 0.86 0.28 1.66 0.44 2.52q0 0.27 0.19 0.47 0.2 0.19 0.47 0.19 0.27 0 0.47-0.19 0.19-0.2 0.19-0.47c0.1-0.84 0.26-1.66 0.34-2.5q0.03-0.53 0-1.06 0-0.54 0-1.08c0-0.36-0.2-1.26-0.32-2q0.37-0.21 0.72-0.46c0.74-0.58 1.44-1.28 2-1.86q0.12-0.07 0.19-0.19 0.08-0.11 0.11-0.24 0.02-0.14-0.01-0.27-0.03-0.14-0.11-0.25-0.08-0.11-0.2-0.18-0.12-0.07-0.26-0.08-0.13-0.02-0.26 0.02-0.14 0.04-0.24 0.13c-0.62 0.38-1.28 0.86-2 1.28q-0.43 0.25-0.88 0.44-0.52-0.56-0.9-1.22c-0.62-0.44-1.2-0.92-1.82-1.36l-2.94-2.04 0.2-0.12c1.33-0.64 2.77-1.02 4.24-1.14q0.65 0.06 1.3 0h0.74c2.21 0.15 4.34 0.83 6.22 2q0.22 0.16 0.5 0.12 0.27-0.04 0.44-0.26 0.15-0.23 0.1-0.5-0.04-0.27-0.26-0.44-1.84-1.37-4-2.14c1.36-0.66 2.51-1.69 3.32-2.96q0.65-1.18 0.94-2.5 0.2-0.99 0.28-2c-0.28-1.28-1.62-0.2-1.72 0.24q-0.19 0.71-0.46 1.38z"/>
			<path fill-rule="evenodd" class="s1" d="m25.02 13.89q-0.46 0.42-1.02 0.68-1.03 0.36-2.1 0.52-1.69 0.32-3.4 0.4-1.7 0.11-3.4 0-1.95-0.09-3.8-0.72 0-0.39 0-0.76l-0.54-3.44c-0.2-1.02-1.2-1.16-1.28-0.64l0.26 4.82c0 0.48 0.36 0.9 1.58 1.48 1.46 0.76 3.04 1.24 4.68 1.4q1.6 0.18 3.2 0 1.58-0.24 3.08-0.78 1.15-0.36 2.24-0.9c0 0 2-1.26 2-2l0.18-4.54c0-0.66-1.34 0-1.4 0.74z"/>
			<path fill-rule="evenodd" class="s0" d="m31.02 5.42q0.11 0.21 0.06 0.45-4.44 3.11-9.3 5.5-1.19 0.56-2.44 0.94-0.98 0.31-2 0.32-0.27 0.04-0.54 0-0.41-0.17-0.8-0.38l-2.18-1.04-7.6-3.64q0.22 0.99 0.32 2c0 0.44 0.12 0.9 0 1.32-0.12 0.42-0.12 0.86-0.12 1.28-0.12 1-0.32 1.98-0.46 3q0 0.27-0.19 0.47-0.2 0.19-0.47 0.19-0.27 0-0.47-0.19-0.19-0.2-0.19-0.47c-0.12-1.04-0.32-2.02-0.32-3.04q0-0.66 0-1.3 0-0.62 0-1.28c0.12-0.98 0.34-1.96 0.48-2.98q2.35-1.71 5.04-2.84c1.5-0.74 3.08-1.36 4.7-2l2.76-0.9c0.04 0 0.7-0.26 0.84-0.26q0.23-0.04 0.46 0 0.72 0.15 1.4 0.44c0.88 0.36 1.76 0.92 2.52 1.2l8.16 2.9q0.22 0.09 0.34 0.31zm-2.06 0.49l-7.02-1.84c-0.8-0.24-1.76-0.74-2.68-1.08q-0.3-0.14-0.63-0.14-0.33 0-0.63 0.14l-2.76 0.8q-2.94 0.84-5.7 1.82c-0.8 0.3-1.56 0.64-2.34 0.96 0.44 0.16 0.8 0.36 1.32 0.52 2.06 0.74 4.2 1.4 6.2 2.18l2.24 0.98q0.42 0.2 0.89 0.2 0.47 0 0.89-0.2 1.14-0.32 2.24-0.76 1.34-0.48 2.62-1.06c1.78-0.8 3.5-1.64 5.36-2.52z"/>
		</g>
	</g>
</svg>