<svg version="1.2" xmlns="http://www.w3.org/2000/svg" viewBox="0 0 48 49" width="48" height="49">
	<defs>
		<clipPath clipPathUnits="userSpaceOnUse" id="cp1">
			<path d="m0 0.29h48v48h-48z"/>
		</clipPath>
	</defs>
	<style>
		.s0 { fill: #022444 } 
		.s1 { fill: #8d1813 } 
	</style>
	<g id="Clip-Path" clip-path="url(#cp1)">
		<g>
			<path fill-rule="evenodd" class="s0" d="m19.7 18.87q0.09 0.09 0.22 0.14 0.12 0.05 0.25 0.05 0.13 0 0.25-0.05 0.13-0.05 0.22-0.14 0.09-0.09 0.14-0.21 0.05-0.12 0.06-0.25-0.01-0.13-0.06-0.25-0.05-0.12-0.14-0.21-0.5-0.66-1.24-1.04-0.73-0.38-1.56-0.4-0.42-0.03-0.82 0.1-0.61 0.12-1.12 0.5c-0.73 0.54-1.26 1.31-1.52 2.18q-0.06 0.1-0.07 0.21-0.02 0.12 0.01 0.23 0.03 0.11 0.11 0.21 0.07 0.09 0.17 0.15 0.1 0.05 0.21 0.07 0.12 0.01 0.23-0.02 0.11-0.03 0.2-0.1 0.09-0.07 0.14-0.17 0.69-0.65 1.6-0.92 0.49-0.23 1.02-0.32c0.58-0.13 1.18-0.04 1.7 0.24z"/>
			<path fill-rule="evenodd" class="s0" d="m25.48 18.53q-0.17 0.17-0.17 0.42 0 0.24 0.17 0.42 0.18 0.16 0.42 0.16 0.24 0 0.42-0.16 0.78-0.52 1.68-0.78 0.38-0.14 0.78-0.2 0.24-0.07 0.48-0.1c0.43 0.01 0.84 0.15 1.18 0.42q0.19 0.2 0.47 0.22 0.28 0.02 0.49-0.16 0.21-0.19 0.23-0.47 0.01-0.28-0.17-0.49-0.4-0.7-1.08-1.14-0.68-0.43-1.48-0.5-0.46-0.05-0.9 0.12-0.57 0.12-1.06 0.44-0.93 0.74-1.46 1.8z"/>
			<path fill-rule="evenodd" class="s1" d="m20.38 7.39c0.7 0 1.32 0.2 2 0.22q0.56-0.02 1.12-0.1c0.6 0 1.14-0.2 1.72-0.2q0.27 0.05 0.51-0.1 0.23-0.15 0.29-0.42 0.03-0.13 0-0.26-0.02-0.13-0.1-0.24-0.07-0.11-0.18-0.19-0.11-0.07-0.24-0.09-0.95-0.47-2-0.6-0.42-0.05-0.84 0l-0.66 0.06q-0.94 0.3-1.8 0.78-0.11 0.02-0.21 0.09-0.09 0.07-0.16 0.16-0.06 0.1-0.08 0.22-0.02 0.11 0.01 0.23 0.04 0.21 0.22 0.34 0.18 0.13 0.4 0.1z"/>
			<path fill-rule="evenodd" class="s1" d="m19.7 11.93c0.78 0 1.46 0.22 2.22 0.28q0.46 0.03 0.92 0h0.94c0.76 0 1.48-0.18 2.24-0.22q0.28 0.02 0.49-0.15 0.21-0.18 0.25-0.45 0.01-0.27-0.16-0.48-0.17-0.21-0.44-0.24-1.13-0.35-2.3-0.56-1-0.18-2 0-1.2 0.22-2.32 0.68-0.12 0.01-0.22 0.08-0.1 0.06-0.16 0.15-0.07 0.1-0.1 0.22-0.02 0.11 0 0.23 0.04 0.22 0.23 0.36 0.18 0.13 0.41 0.1z"/>
			<path fill-rule="evenodd" class="s0" d="m27.54 22.65c-0.83 1-1.92 1.76-3.14 2.22q-0.76 0.28-1.56 0.2-0.85-0.05-1.58-0.48-0.45-0.26-0.82-0.62-0.39-0.4-0.74-0.84-0.13-0.2-0.36-0.26-0.24-0.05-0.44 0.08-0.1 0.06-0.17 0.15-0.07 0.09-0.1 0.2-0.02 0.12-0.01 0.23 0.02 0.12 0.08 0.22 0.33 0.69 0.76 1.34 0.3 0.47 0.7 0.86 0.76 0.8 1.8 1.18c0.73 0.24 1.51 0.27 2.26 0.1q0.64-0.13 1.22-0.44c1.36-0.82 2.47-1.99 3.2-3.4q0.14-0.24 0.1-0.51-0.06-0.27-0.28-0.43-0.11-0.08-0.24-0.1-0.13-0.03-0.26 0-0.13 0.03-0.24 0.11-0.11 0.07-0.18 0.19z"/>
			<path fill-rule="evenodd" class="s1" d="m32.64 36.29l-0.3-0.48c-2.1-1.76-2.48-1.58-2.14-0.56l0.74 1.26q0.65 1.07 1.06 2.26 0.17 0.56 0.22 1.14 0.01 0.13 0 0.26h-1.42-5.28c0.3-0.34 0.56-0.68 0.72-0.9 0.16-0.22 0.54-0.86 0.78-1.3 0.58-1.04 1.1-2.12 1.64-3.16 0-1.24-1.14-1.38-1.66-0.34-0.52 1.04-1.08 1.64-1.66 2.44q-0.4 0.54-0.82 1.06c-0.28 0.34-0.42 0.64-0.7 0.96l-1.08-1.34-2.28-2.56c-1.84-1.54-2.66-0.78-1.68 0.52 0.98 1.3 1.5 2.26 2.26 3.38l0.96 1.36q-1.56 0-3.16 0c-0.64 0-1.3 0-2-0.12l-1.02-0.18q0.03-0.23 0-0.46l1.18-3.24c-0.14-1.48-1.24-1.12-1.76 0.56l-0.98 2.34c0 0.1-0.22 0.56-0.3 0.86q-0.1 0.33 0 0.66c0.15 0.41 0.44 0.76 0.82 0.98q0.85 0.42 1.78 0.56 1.42 0.27 2.86 0.34c0.96 0 2 0 2.92 0q0.01 0.1 0 0.2-0.06 0.77 0 1.54c0 0.78 0.26 1.52 0.34 2.32q-0.01 0.13 0.03 0.25 0.05 0.13 0.13 0.22 0.09 0.1 0.21 0.16 0.12 0.06 0.25 0.07 0.14 0 0.26-0.04 0.13-0.05 0.23-0.14 0.1-0.1 0.16-0.22 0.05-0.13 0.05-0.26 0.32-1.19 0.5-2.4 0.03-0.49 0-0.98 0.03-0.44 0-0.88 1.01 0 2 0c1.46 0 2.9-0.18 4.34-0.26l1.52-0.1h0.6q0.23-0.04 0.42-0.17 0.19-0.13 0.3-0.33c0.25-0.48 0.36-1.03 0.3-1.56q-0.11-0.94-0.44-1.82-0.38-0.99-0.9-1.9z"/>
			<path fill-rule="evenodd" class="s0" d="m47.02 45.48q-0.09 0.26-0.34 0.39-0.12 0.06-0.25 0.07-0.14 0.02-0.27-0.02-0.13-0.04-0.23-0.13-0.11-0.08-0.17-0.2c-2.77-4.77-6.97-8.53-12-10.76-3.22-1.17-6.59-1.9-10-2.18h-0.14c-3.3 0.02-6.55 0.87-9.44 2.48-2.03 0.99-3.9 2.28-5.56 3.82-2.77 2.54-5.02 5.59-6.62 9q-0.09 0.2-0.3 0.3-0.2 0.1-0.42 0.04-0.12-0.05-0.21-0.13-0.09-0.09-0.14-0.21-0.04-0.12-0.03-0.25 0.01-0.13 0.08-0.23c1.51-3.65 3.71-6.97 6.48-9.78 2.75-2.74 6.08-4.84 9.74-6.14-1.99-0.68-3.77-1.85-5.19-3.41-1.41-1.55-2.41-3.43-2.91-5.47q-0.31-1.23-0.48-2.48-0.14 0-0.27-0.05-0.12-0.06-0.21-0.17c-1.05-1.55-1.74-3.31-2.01-5.17-0.27-1.85-0.1-3.73 0.47-5.51 0.43-1.27 1.2-2.4 2.21-3.28 1.01-0.88 2.23-1.47 3.55-1.72q0.51-0.19 0.98-0.46 2.77-1.78 5.86-2.92 1.37-0.45 2.8-0.62 1.25-0.15 2.5 0 1.96 0.31 3.72 1.24 0.74 0.35 1.42 0.8 0.95 0.66 1.84 1.42 0.16 0.12 0.2 0.32 1.24-0.43 2.54-0.3 1.31 0.14 2.44 0.8c0.89 0.68 1.64 1.54 2.19 2.53 0.55 0.98 0.89 2.06 1.01 3.19 0.32 3.09-0.25 6.21-1.64 9l-3.12 5.62c-1.35 2.24-3.25 4.11-5.52 5.42l-1.02 0.5q3.23 0.68 6.18 2.14c5.25 2.61 9.54 6.81 12.26 12q0.11 0.25 0.02 0.51zm-15.88-37.83c0.11 0.62 0.41 1.2 0.86 1.66 0.86 0.98 2 1.7 2.72 2.52q0.84 0.9 1.42 2 0.79 1.57 1.16 3.3c0 0.1 0 0.1 0 0.1q0.12 0.18 0.12 0.4c0.61-1.85 0.86-3.8 0.74-5.74 0-1.09-0.25-2.16-0.73-3.13-0.48-0.97-1.19-1.82-2.05-2.47q-0.66-0.37-1.41-0.45-0.75-0.08-1.47 0.15c-0.8 0.3-1.5 0.72-1.36 1.66zm-22.64 10.34q-0.01-0.03-0.02-0.05 0 0 0 0.01zm-0.02-0.05q0.3-1.72 1.2-3.21 0.98-1.83 2.4-3.34c0.54-0.54 1.16-1.04 1.7-1.6q0.44-0.46 0.76-1 0.28-0.42 0.28-0.91 0-0.5-0.28-0.91-0.33-0.38-0.8-0.52-0.48-0.14-0.96 0c-1.22 0.24-2.34 0.85-3.2 1.76-0.86 0.91-1.41 2.06-1.58 3.3-0.46 2.14-0.3 4.38 0.48 6.43zm14.95 12.12c1.83-0.18 3.6-0.73 5.21-1.61 2.05-1.05 3.81-2.6 5.1-4.5 1.29-1.97 2.11-4.2 2.42-6.52q-0.37-1.28-1-2.44-0.61-1.14-1.56-2-1.82-1.29-3.44-2.8-0.75-0.88-1.04-2c-0.18-0.65-0.16-1.34 0.08-1.98 0.23-0.63 0.66-1.17 1.22-1.54q-0.62-0.42-1.28-0.78-0.76-0.42-1.58-0.7-1.57-0.5-3.22-0.54-1.09-0.09-2.18 0-1.25 0.12-2.48 0.4-2.48 0.58-4.86 1.52 0.88 0.37 1.46 1.12c0.42 0.6 0.65 1.33 0.65 2.07 0 0.74-0.23 1.46-0.65 2.07q-0.37 0.59-0.86 1.1c-0.66 0.64-1.44 1.16-2.12 1.76q-1.13 1.03-2 2.3c-0.58 0.8-0.99 1.72-1.2 2.7q-0.03 0.15-0.13 0.28-0.1 0.12-0.25 0.18 0.04 0.74 0.16 1.48 0.24 1.35 0.66 2.66c0.55 1.72 1.52 3.28 2.82 4.54 1.31 1.26 2.9 2.18 4.64 2.68 1.75 0.54 3.6 0.73 5.43 0.55z"/>
		</g>
	</g>
</svg>