<svg version="1.2" xmlns="http://www.w3.org/2000/svg" viewBox="0 0 48 49" width="48" height="49">
	<defs>
		<clipPath clipPathUnits="userSpaceOnUse" id="cp1">
			<path d="m0 0.29h48v48h-48z"/>
		</clipPath>
	</defs>
	<style>
		.s0 { fill: #022444 } 
		.s1 { fill: #8d1813 } 
	</style>
	<filter id="f0">
		<feFlood flood-color="#022444" flood-opacity="0" />
		<feBlend mode="normal" in2="SourceGraphic"/>
		<feComposite in2="SourceAlpha" operator="in" />
	</filter>
	<g id="Clip-Path" clip-path="url(#cp1)" filter="url(#f0)">
		<g>
			<path fill-rule="evenodd" class="s0" d="m27.12 21.47q-0.7-0.69-1.62-1.02-1.71-0.54-3.5-0.7c-0.42 0-0.86-0.1-1.28-0.12h-0.34c0.96-0.82 1.7-1.87 2.15-3.04 0.45-1.18 0.59-2.46 0.41-3.7-0.32-2.07-1.43-3.93-3.1-5.19-1.67-1.25-3.77-1.8-5.84-1.53-1.94 0-3.81 0.73-5.23 2.05-1.43 1.31-2.31 3.11-2.47 5.05q-0.05 1.29 0.42 2.5 0.47 1.21 1.38 2.14c-1.96 2.86-3.35 6.07-4.1 9.46-0.36 1.15-0.46 2.36-0.3 3.56 0.15 1.19 0.57 2.34 1.22 3.36h-0.3q-0.92-0.09-1.7-0.56c0 0 0-0.16 0-0.28q-0.2-0.57-0.24-1.16c-0.1-0.84-0.1-1.7-0.14-2.1l-0.54-6.32c-0.12-1.58-0.34-3.04-0.48-4.56q-0.16-1.51-0.14-3.02 0-0.24-0.17-0.41-0.17-0.17-0.41-0.17-0.24 0-0.41 0.17-0.17 0.17-0.17 0.41-0.2 1.53-0.22 3.08 0 2.31 0 4.62c0 1.54 0 2.56 0.1 3.84q0.04 1.31 0.24 2.62 0.12 1.54 0.48 3.06c0.14 0.63 0.5 1.2 1 1.62q0.63 0.36 1.34 0.5c-0.28 0.96-0.58 2-0.84 2.9q-0.23 0.8-0.4 1.64-0.17 0.84-0.28 1.68-0.26 1.97-0.46 4-0.05 0.13-0.04 0.27 0.02 0.15 0.09 0.27 0.07 0.13 0.18 0.21 0.12 0.09 0.26 0.12 0.14 0.02 0.28-0.01 0.14-0.03 0.25-0.12 0.12-0.09 0.19-0.21 0.06-0.13 0.07-0.27c0.4-1.28 0.84-2.52 1.22-3.8q0.24-0.83 0.42-1.66 0.19-0.85 0.3-1.7c0.12-1.04 0.14-2 0.16-3.12 0.98 0 2 0 2.8 0 0.8 0 1.36 0.32 2 0.46 1.03 0.09 2.01 0.46 2.84 1.08q0.48 0.42 0.86 0.94c0.28 0.38 0.5 0.78 0.74 1.18 0.52 1.04 1.1 4.78 2.28 6.3q0.28 0.4 0.7 0.67 0.41 0.26 0.9 0.35 0.69 0.07 1.33-0.19 0.63-0.26 1.07-0.79c1.41-1.95 2.12-4.32 2-6.72 0.16-2.33-0.42-4.65-1.66-6.62q-0.62-0.77-1.48-1.24c-1-0.56-2.14-0.76-3.16-1.32q-0.1-1.84 0-3.68 0.09-0.26-0.03-0.51-0.12-0.24-0.37-0.33-0.26-0.09-0.51 0.02-0.25 0.12-0.35 0.38c0 0.2-0.16 3.04-0.16 4.18-0.01 0.37 0.13 0.74 0.38 1.02 1.1 0.72 2.36 0.98 3.46 1.64q0.57 0.34 0.96 0.88c0.92 1.69 1.29 3.62 1.06 5.54 0.08 1.86-0.47 3.7-1.56 5.22-0.22 0.22-0.38 0.38-0.56 0.38-0.18 0-0.1 0-0.14-0.14q-0.25-0.32-0.4-0.68c-0.84-1.74-1.28-4.52-1.72-5.38q-0.4-0.77-0.92-1.46-0.52-0.74-1.22-1.32-0.72-0.61-1.6-0.94-1.55-0.52-3.18-0.68c-0.85-0.06-1.66-0.35-2.36-0.82-1.3-1.06-1.34-3.22-0.96-5.5 0.53-3.22 1.67-6.29 3.38-9.06 1.37 0.94 2.96 1.49 4.62 1.6q0.11 0.01 0.23-0.02 0.11-0.03 0.2-0.1 0.09-0.07 0.14-0.17 0.06-0.1 0.07-0.21 0.02-0.12-0.01-0.23-0.03-0.11-0.1-0.2-0.07-0.09-0.17-0.15-0.11-0.05-0.22-0.06c-4.06-0.66-5.74-3.24-5.62-5.76 0.2-1.43 0.93-2.74 2.04-3.66 1.11-0.92 2.52-1.4 3.96-1.34 1.55-0.26 3.13 0.1 4.42 0.99 1.28 0.9 2.17 2.27 2.46 3.81 0.28 1.58-0.08 3.22-1 4.55-0.92 1.32-2.32 2.24-3.9 2.55q-0.13 0.02-0.24 0.1-0.11 0.08-0.18 0.19-0.07 0.12-0.09 0.25-0.02 0.13 0.01 0.26 0.03 0.13 0.11 0.24 0.08 0.1 0.2 0.17 0.12 0.07 0.25 0.09 0.13 0.01 0.26-0.02 1.03-0.24 2-0.66l1.76 0.22q0.73 0.08 1.44 0.3 1.6 0.39 3.1 1.06 0.5 0.16 0.82 0.58c0 0.1 0 0.18-0.22 0.34l-0.5 0.44-1.08 0.56q-1.25 0.43-2.58 0.42c-1.52 0-3.08-0.14-4.4-0.16q-0.13-0.02-0.26 0.02-0.12 0.04-0.23 0.13-0.1 0.08-0.16 0.2-0.06 0.11-0.07 0.25-0.01 0.13 0.03 0.25 0.05 0.13 0.13 0.22 0.09 0.1 0.21 0.16 0.12 0.06 0.25 0.07c1.56 0.2 3.48 0.64 5.24 0.7q1.28-0.01 2.5-0.38 0.34-0.1 0.66-0.24 0.48-0.19 0.92-0.46l1.04-0.88c0.98-1.58 0.78-2.54 0.1-3.24z"/>
			<path fill-rule="evenodd" class="s1" d="m42.2 12.29q-0.24-0.11-0.5-0.03-0.25 0.09-0.38 0.33-0.48 0.93-0.9 1.9c-0.38 0.94-0.72 2-1.04 2.88-0.32 0.88-0.56 1.58-0.78 2.38q-0.24 0.83-0.36 1.7l-0.1 1.3h-1.74c-1.46 0.16-2.92 0.32-4.4 0.56-1.48 0.24-1.78 0.26-3.2 0.58-1.42 0.32-0.9 1.34-0.28 1.2 1.16-0.12 1.64 0 2.8 0 1.72 0 3.44-0.12 5.16 0 0.18 0 1.82 0 2.46 0q0.39-0.02 0.73-0.23 0.33-0.21 0.51-0.55 0.16-0.46 0.18-0.94c0-0.52 0-1.08 0-1.54q0.04-0.75 0.18-1.48c0.14-0.78 0.34-1.56 0.52-2.32 0.18-0.76 0.46-2 0.74-2.9q0.3-0.93 0.66-1.82 0.1-0.12 0.14-0.28 0.04-0.15 0-0.3-0.04-0.16-0.15-0.27-0.1-0.12-0.25-0.17z"/>
			<path fill-rule="evenodd" class="s0" d="m47.36 27.63c-2.72-0.26-5.42-0.48-8.14-0.54q-1.75 0-3.5 0c-1.16 0-2.34 0-3.5 0.2-2.7 0.26-5.38 0.72-8 1.18q-0.21 0.05-0.33 0.23-0.12 0.17-0.1 0.39 0.03 0.21 0.18 0.36 0.16 0.14 0.37 0.16c3.1-0.16 6.16-0.16 9.22-0.22h1.36c-0.16 1.46-0.36 2.9-0.4 4.36 0 1.02 0 2 0 3.08 0 1.32 0.2 2.62 0.3 4q-0.97 0.05-1.9 0.32c-1.67 0.53-3.24 1.36-4.62 2.44q-0.19 0.13-0.25 0.36-0.06 0.23 0.05 0.44 0.13 0.19 0.36 0.25 0.23 0.06 0.44-0.05 2.14-1.01 4.48-1.38 0.94-0.15 1.9-0.18 0.94-0.08 1.88 0c1.52 0.2 2.97 0.74 4.26 1.58q0.22 0.16 0.49 0.12 0.27-0.04 0.44-0.25 0.16-0.23 0.13-0.5-0.04-0.27-0.26-0.43c-1.32-1.23-2.92-2.11-4.66-2.56q-0.64-0.18-1.3-0.22 0.24-1.9 0.36-3.8c0-0.66 0-1.3 0-2 0-0.7 0-1.3 0-2-0.1-1.26-0.26-2.5-0.4-3.74h1.9l4.62-0.22q2.28 0 4.6 0 0.14 0 0.27-0.06 0.12-0.06 0.22-0.16 0.09-0.1 0.14-0.23 0.04-0.14 0.03-0.27 0-0.27-0.19-0.46-0.18-0.19-0.45-0.2z"/>
			<path fill-rule="evenodd" class="s1" d="m33 8.11q-0.67-0.11-1.34 0-0.7 0.04-1.34 0.32c-0.97 0.43-1.79 1.15-2.32 2.08q-0.15 0.18-0.13 0.42 0.03 0.24 0.21 0.4 0.19 0.15 0.43 0.13 0.23-0.03 0.39-0.21c0.62-0.47 1.36-0.76 2.14-0.82l0.96-0.14q0.49-0.03 0.98 0 1.2-0.13 2.34 0.28 0.11 0.07 0.23 0.09 0.13 0.02 0.25 0 0.13-0.03 0.23-0.11 0.1-0.07 0.17-0.18 0.07-0.12 0.1-0.25 0.02-0.13-0.01-0.26-0.03-0.13-0.1-0.23-0.08-0.11-0.19-0.18c-0.86-0.72-1.9-1.18-3-1.34z"/>
			<path fill-rule="evenodd" class="s1" d="m25.54 6.71c1.46-1.06 3.12-1.81 4.88-2.2q1.7-0.47 3.46-0.52c1.92-0.16 3.83 0.41 5.34 1.6q0.09 0.09 0.21 0.14 0.13 0.05 0.26 0.05 0.13 0 0.25-0.05 0.13-0.05 0.22-0.14 0.18-0.2 0.18-0.46 0-0.27-0.18-0.46c-1.39-1.56-3.31-2.55-5.38-2.78q-1.32-0.15-2.64 0-1.28 0.17-2.5 0.62c-1.87 0.71-3.55 1.86-4.88 3.36q-0.17 0.17-0.17 0.41 0 0.23 0.17 0.41 0.17 0.14 0.39 0.15 0.22 0 0.39-0.13z"/>
		</g>
	</g>
</svg>