<svg version="1.2" xmlns="http://www.w3.org/2000/svg" viewBox="0 0 48 49" width="48" height="49">
	<style>
		.s0 { fill: #022444 } 
		.s1 { fill: #8d1813 } 
	</style>
	<path fill-rule="evenodd" class="s0" d="m24.66 20.97q0.08-0.1 0.11-0.23 0.03-0.13 0.01-0.26-0.02-0.13-0.1-0.24-0.07-0.12-0.18-0.19c-0.57-0.65-1.29-1.16-2.1-1.48q-0.63-0.22-1.3-0.16-0.68 0.07-1.26 0.44c-0.71 0.55-1.26 1.28-1.58 2.12q-0.07 0.09-0.09 0.21-0.03 0.11-0.01 0.22 0.02 0.11 0.08 0.21 0.06 0.1 0.16 0.16 0.09 0.07 0.21 0.1 0.11 0.03 0.23 0.01 0.11-0.01 0.21-0.07 0.1-0.06 0.17-0.16 0.7-0.62 1.6-0.9 0.27-0.03 0.54 0c0.82-0.12 1.65 0.04 2.36 0.46q0.25 0.14 0.52 0.07 0.27-0.07 0.42-0.31z"/>
	<path fill-rule="evenodd" class="s0" d="m28.24 21.05l0.92-0.8q0.39-0.27 0.84-0.44 0.37-0.18 0.78-0.2 0.43-0.09 0.86 0 0.72 0.23 1.26 0.76 0.06 0.13 0.17 0.23 0.1 0.1 0.24 0.14 0.14 0.04 0.28 0.02 0.15-0.02 0.27-0.09 0.12-0.08 0.2-0.2 0.08-0.13 0.1-0.27 0.02-0.14-0.02-0.28-0.04-0.14-0.14-0.25-0.37-0.82-1.05-1.4-0.68-0.58-1.55-0.82-0.65-0.13-1.3 0.01-0.65 0.13-1.2 0.51-0.49 0.41-0.86 0.94-0.44 0.7-0.78 1.46-0.07 0.09-0.1 0.21-0.03 0.11-0.01 0.23 0.01 0.11 0.08 0.21 0.06 0.1 0.15 0.17 0.1 0.08 0.22 0.11 0.12 0.03 0.24 0.01 0.12-0.02 0.23-0.09 0.1-0.07 0.17-0.17z"/>
	<path fill-rule="evenodd" class="s0" d="m26.18 27.57q0.71 0.07 1.4-0.14c0.95-0.34 1.78-0.94 2.42-1.72q0.19-0.2 0.19-0.47 0-0.27-0.19-0.47-0.09-0.09-0.21-0.14-0.13-0.05-0.26-0.06-0.13 0.01-0.25 0.06-0.13 0.05-0.22 0.14c-0.8 0.55-1.78 0.78-2.74 0.64l-0.76-0.14q-1.09-0.22-2-0.86-0.17-0.16-0.41-0.16-0.24 0-0.41 0.16-0.09 0.08-0.13 0.19-0.05 0.11-0.05 0.23 0 0.12 0.05 0.23 0.04 0.11 0.13 0.19c0.49 0.82 1.18 1.51 2 2q0.68 0.33 1.44 0.32z"/>
	<path fill-rule="evenodd" class="s1" d="m4 22.57c-0.1 0.38-0.28 0.86-0.3 1.02l-0.14 4.76q0 2.76 0.36 5.52c0.28 2.44 0.66 4.88 0.84 7.3 0.72 1.84 1.32 1.3 1.64-2.62v0.02c0-1.7-0.18-3.42-0.3-5.12-0.12-1.7-0.3-3.36-0.36-5.04l-0.14-2.3c0.84 0.46 1.76 0.94 2.6 1.46 0.66 0.35 1.23 0.86 1.66 1.48q0.17 0.27 0.26 0.58c0.12 0.44 0.18 0.88 0.26 1.3l0.34 2.2v0.28c0.44 1.54 1.08 1 1.76-0.88v-1.96q-0.07-0.8-0.22-1.6-0.16-0.65-0.52-1.22c-0.53-0.7-1.21-1.28-2-1.68q-2.06-0.91-4.24-1.5v-0.98c0-0.28 0-1.04 0-1.54q-0.01-0.41-0.24-0.76-0.12-0.16-0.3-0.26-0.18-0.09-0.38-0.1-0.43 0.04-0.86 0.14l-3.22 0.66q-0.23 0.04-0.38 0.23-0.13 0.2-0.1 0.43 0.05 0.24 0.24 0.38 0.2 0.13 0.44 0.1l3.16-0.3z"/>
	<path fill-rule="evenodd" class="s0" d="m48 44.81q-0.01-0.03-0.01-0.07 0 0 0-0.01zm-0.02-0.07q0.04 0.25-0.09 0.46-0.14 0.23-0.4 0.29-0.26 0.07-0.49-0.06-0.23-0.14-0.3-0.4-0.73-2.9-2.2-5.52c-0.97-1.68-2.35-3.1-4-4.12q-0.67-0.4-1.38-0.72 0.03 0.15-0.01 0.29-0.03 0.14-0.13 0.25-0.76 0.9-1.42 1.86c-1.06 1.56-2 3.2-3.16 4.7q-0.44 0.59-0.96 1.1c-1.1 1.04-1.44 1.04-1.44 1.04q-0.42 0.15-0.84 0-0.29-0.15-0.52-0.38c-0.22-0.26-0.5-0.66-0.64-0.82l-1.76-2.18q-0.61-0.68-1.22-1.4c-0.48 0.7-0.98 1.34-1.46 2q-0.92 1.39-2.12 2.54c-0.56 0.49-1.27 0.75-2 0.74-0.3 0-0.58-0.13-0.78-0.34-0.12-0.16-0.38-0.62-0.38-0.62l-1.14-1.64c-0.96-1.32-1.9-2.62-2.76-4q-0.66-1.06-1.2-2.2l-0.54 0.22c-2.73 1.15-5.01 3.14-6.5 5.68q-0.63 1.16-0.98 2.42-0.39 1.3-0.56 2.64-0.06 0.23-0.25 0.36-0.19 0.14-0.41 0.12c-1.14 0-1.04-1.74-1.04-1.74 2.18-4.98 4.14-11 15.22-13.46q-1.58-0.78-2.84-2c-1.18-1.22-2.03-2.71-2.48-4.34q-0.85-3.11-1.14-6.32l-1.16 0.74q-0.09 0.08-0.21 0.11-0.11 0.03-0.22 0.02-0.24-0.02-0.39-0.21-0.08-0.09-0.11-0.2-0.04-0.11-0.02-0.22 0.01-0.12 0.06-0.22 0.06-0.1 0.15-0.18 0.78-0.68 1.6-1.28-0.67-3.15-0.92-6.36c-0.13-1.63 0.23-3.26 1.04-4.68q0.57-0.87 1.44-1.44 1.13-0.72 2.36-1.26c2.09-0.9 4.29-1.51 6.56-1.8q3.36-0.34 6.72 0 1.88 0.14 3.7 0.66c0.94 0.25 1.8 0.73 2.5 1.4 1.1 1.32 1.76 2.95 1.9 4.66q0.25 3.49 0 6.98c0 0.14 0 0.14 0 0.14l1.5 0.9q0.22 0.16 0.28 0.42 0.05 0.27-0.08 0.5-0.08 0.12-0.18 0.19-0.11 0.08-0.24 0.11-0.13 0.02-0.26 0-0.13-0.02-0.24-0.1c-0.5-0.28-1-0.5-1.52-0.74q0.31 3.24-0.2 6.44c-0.28 1.58-0.87 3.09-1.72 4.44-0.8 1.17-1.84 2.15-3.04 2.88q1.66 0.15 3.3 0.54c1.9 0.45 3.71 1.24 5.34 2.34 1.45 1 2.68 2.28 3.64 3.76 1.31 2.16 2.24 4.54 2.74 7.01zm0 0v-0.03q0 0.01 0 0.03zm-33.5-27.69c2-1.34 4.2-2.37 6.52-3.04q2.21-0.65 4.52-0.84 2.31-0.25 4.62 0c2.45 0.32 4.85 1.04 7.08 2.12 0-1.22 0-2.68 0-4.14q-0.13 0.04-0.26 0-0.86-0.17-1.72-0.22c-0.58 0-2.9 0-3.5 0-1.26-0.08-2.48-0.32-3.64-0.32q-0.12 0.01-0.23-0.02-0.11-0.04-0.2-0.11-0.09-0.08-0.14-0.18-0.05-0.1-0.06-0.22-0.01-0.11 0.02-0.22 0.04-0.11 0.11-0.2 0.07-0.09 0.18-0.14 0.1-0.06 0.22-0.07 1.59-0.45 3.22-0.74 0.72-0.06 1.44 0 0.72 0.01 1.44 0.14 1.52 0.27 2.94 0.92v-0.58c-0.17-1.34-0.74-2.59-1.64-3.6-0.48-0.41-1.06-0.68-1.68-0.8q-1.65-0.35-3.32-0.42-3.14-0.22-6.26 0.16-3.11 0.33-6 1.48-1.12 0.4-2.14 0.98-0.6 0.31-1 0.84c-0.55 0.77-0.89 1.65-1 2.58q1.07-0.62 2.24-1.04 0.77-0.33 1.6-0.52 0.8-0.2 1.64-0.28 1.93-0.18 3.86 0 0.24 0 0.43 0.16 0.19 0.16 0.23 0.4 0 0.14-0.04 0.27-0.05 0.12-0.14 0.22-0.1 0.1-0.22 0.15-0.13 0.05-0.26 0.04c-1.02 0.12-2.1 0.36-3.02 0.56-0.92 0.2-1.8 0.46-2.72 0.7q-1.83 0.39-3.6 0.98 0.07 2.52 0.48 5zm7.98 13.49c1.4 0.39 2.87 0.5 4.32 0.31 1.45-0.04 2.88-0.4 4.18-1.05 1.3-0.64 2.45-1.56 3.38-2.69 0.79-1.11 1.35-2.37 1.66-3.7q0.69-3.16 0.52-6.4-0.03-0.12 0-0.24c-2.12-0.82-4.34-1.31-6.6-1.48q-2.1-0.18-4.2 0-2.12 0.19-4.18 0.68c-2.37 0.56-4.65 1.44-6.78 2.6q0.49 3.34 1.56 6.54c0.47 1.32 1.25 2.51 2.28 3.46 1.14 0.91 2.45 1.57 3.86 1.97zm1.3 9.23q0.9-1.11 1.84-2.1c-0.5-0.54-0.98-1.1-1.5-1.62q-1.16-1.16-2.44-2.18l-0.6 0.1q-2.39 0.42-4.68 1.2c0.4 0.62 0.78 1.24 1.24 1.82 0.96 1.24 2.02 2.4 3.1 3.58l1.18 1.46q0.31-0.25 0.56-0.56c0.54-0.6 1.02-1.28 1.3-1.64zm3.04-3.56q1.45-1.59 2.94-2.98h-1.9q-2.11 0.1-4.28 0.38 0.83 0.58 1.64 1.24c0.54 0.44 1.08 0.94 1.6 1.42zm11.3-1.8q-1.19-0.47-2.44-0.72-1.98-0.42-4-0.48-1.45 1.72-2.8 3.46l-0.68 0.9 1.6 1.54 2 2.2q0.08 0.13 0.14 0.26l0.3-0.26q0.36-0.33 0.7-0.7c1.26-1.36 2.32-2.88 3.5-4.32q0.79-0.96 1.68-1.84z"/>
</svg>